<?xml version="1.0" encoding="UTF-8"?>
<!DOCTYPE svg PUBLIC "-//W3C//DTD SVG 1.1//EN" "http://www.w3.org/Graphics/SVG/1.1/DTD/svg11.dtd">
<svg xmlns="http://www.w3.org/2000/svg" version="1.1" width="600px" height="606px" style="shape-rendering:geometricPrecision; text-rendering:geometricPrecision; image-rendering:optimizeQuality; fill-rule:evenodd; clip-rule:evenodd" xmlns:xlink="http://www.w3.org/1999/xlink">
<g><path style="opacity:1" fill="#fefefe" d="M -0.5,-0.5 C 199.5,-0.5 399.5,-0.5 599.5,-0.5C 599.5,201.5 599.5,403.5 599.5,605.5C 399.5,605.5 199.5,605.5 -0.5,605.5C -0.5,403.5 -0.5,201.5 -0.5,-0.5 Z"/></g>
<g><path style="opacity:1" fill="#080707" d="M 154.5,6.5 C 234.117,36.8755 315.45,42.0422 398.5,22C 414.384,17.9872 429.884,12.8206 445,6.5C 445.772,6.6448 446.439,6.97814 447,7.5C 463.643,55.9687 494.476,92.302 539.5,116.5C 501.578,168.002 490.078,225.002 505,287.5C 511.538,313.321 518.538,338.988 526,364.5C 528.845,376.06 531.179,387.726 533,399.5C 538.857,438.598 526.69,470.765 496.5,496C 478.924,509.625 459.924,520.959 439.5,530C 416.711,539.263 393.711,547.929 370.5,556C 350.553,562.804 332.22,572.471 315.5,585C 309.738,590.704 304.572,596.871 300,603.5C 291.79,590.626 280.957,580.46 267.5,573C 259.955,569.061 252.288,565.394 244.5,562C 215.719,551.304 187.052,540.304 158.5,529C 136.981,519.419 117.314,507.085 99.5,492C 70.6174,464.008 60.4508,430.175 69,390.5C 77.8614,354.055 87.1948,317.721 97,281.5C 109.398,221.203 97.5651,166.203 61.5,116.5C 106.94,92.0584 137.94,55.3917 154.5,6.5 Z"/></g>
<g><path style="opacity:1" fill="#f3e50c" d="M 334.5,43.5 C 340.069,43.624 345.402,42.9573 350.5,41.5C 379.988,38.0582 408.655,31.2249 436.5,21C 437.833,20.3333 439.167,20.3333 440.5,21C 457.104,62.9394 484.604,95.7728 523,119.5C 523.667,120.5 523.667,121.5 523,122.5C 497.141,161.932 485.641,205.266 488.5,252.5C 488.444,257.731 489.111,262.731 490.5,267.5C 492.998,279.817 495.498,292.15 498,304.5C 508.372,336.988 516.705,369.988 523,403.5C 527.397,438.524 515.897,467.024 488.5,489C 473.464,500.188 457.464,509.855 440.5,518C 406.431,531.024 372.431,544.357 338.5,558C 324.553,565.223 311.72,574.056 300,584.5C 288.348,572.746 274.848,563.58 259.5,557C 230.189,545.673 200.856,534.34 171.5,523C 144.259,512.139 120.092,496.639 99,476.5C 80.8953,455.164 73.8953,430.497 78,402.5C 79.4729,390.328 81.8063,378.328 85,366.5C 92.9626,339.315 100.296,311.982 107,284.5C 117.569,237.851 112.902,192.851 93,149.5C 87.5829,139.321 82.2496,129.321 77,119.5C 115.798,96.36 143.465,63.6933 160,21.5C 160.561,20.9781 161.228,20.6448 162,20.5C 217.762,40.5751 275.262,48.2418 334.5,43.5 Z"/></g>
<g><path style="opacity:1" fill="#afa51a" d="M 488.5,252.5 C 489.889,257.269 490.556,262.269 490.5,267.5C 489.111,262.731 488.444,257.731 488.5,252.5 Z"/></g>
<g><path style="opacity:1" fill="#100f04" d="M 164.5,30.5 C 255.148,59.7948 345.815,59.7948 436.5,30.5C 448.771,60.2843 467.104,85.7843 491.5,107C 498.711,112.1 505.711,117.433 512.5,123C 484.348,169.38 474.515,219.547 483,273.5C 490.612,308.569 499.612,343.236 510,377.5C 514.026,393.616 515.692,409.95 515,426.5C 512.723,448.223 503.223,466.056 486.5,480C 469.561,493.304 451.227,504.304 431.5,513C 400.388,524.813 369.388,536.813 338.5,549C 324.71,555.397 312.043,563.564 300.5,573.5C 288.177,562.997 274.51,554.497 259.5,548C 229.744,536.86 200.077,525.526 170.5,514C 144.498,503.089 121.664,487.589 102,467.5C 86.7587,446.57 81.7587,423.237 87,397.5C 92.2932,369.991 99.2932,342.991 108,316.5C 112.312,298.624 115.979,280.624 119,262.5C 124.815,212.234 114.315,165.734 87.5,123C 122.492,99.8488 148.159,69.0155 164.5,30.5 Z"/></g>
<g><path style="opacity:1" fill="#275329" d="M 432.5,33.5 C 433.376,33.3691 434.043,33.7025 434.5,34.5C 451.127,71.135 476.127,100.802 509.5,123.5C 478.727,175.572 470.227,231.238 484,290.5C 492.984,323.771 501.651,357.104 510,390.5C 519.224,425.146 510.724,454.313 484.5,478C 469.109,490.363 452.443,500.697 434.5,509C 403.702,521.221 372.702,533.221 341.5,545C 326.802,551.672 313.136,559.839 300.5,569.5C 289.475,561.319 277.808,554.152 265.5,548C 234.581,535.704 203.581,523.704 172.5,512C 151.097,502.801 131.43,490.801 113.5,476C 91.8435,455.453 83.6768,430.287 89,400.5C 94.7061,371.388 102.039,342.721 111,314.5C 115.941,295.405 119.607,276.072 122,256.5C 126.062,209.028 115.895,164.861 91.5,124C 115.399,107.435 135.232,86.9346 151,62.5C 156.119,53.6353 160.952,44.6353 165.5,35.5C 166.667,35.1667 167.833,34.8333 169,34.5C 256.955,62.799 344.788,62.4657 432.5,33.5 Z"/></g>
<g><path style="opacity:1" fill="#101311" d="M 164.5,423.5 C 169.179,423.334 173.845,423.501 178.5,424C 181.939,425.202 183.273,427.369 182.5,430.5C 178.105,432.562 175.105,435.896 173.5,440.5C 176.077,446.79 180.744,449.456 187.5,448.5C 197.155,447.425 206.822,446.925 216.5,447C 217.766,447.309 218.933,447.809 220,448.5C 221.174,452.046 221.84,455.713 222,459.5C 225.273,462.813 229.273,464.147 234,463.5C 250.39,461.907 266.557,459.074 282.5,455C 295.883,452.944 309.216,453.277 322.5,456C 331.886,457.786 341.22,459.786 350.5,462C 357.465,463.254 364.465,463.587 371.5,463C 374.458,462.771 376.958,461.604 379,459.5C 379.333,456.167 379.667,452.833 380,449.5C 380.903,448.299 382.069,447.465 383.5,447C 392.511,446.976 401.511,447.476 410.5,448.5C 418.161,449.834 423.827,447.168 427.5,440.5C 426.533,438.37 425.366,436.37 424,434.5C 421.33,432.995 419.164,430.995 417.5,428.5C 417.876,426.617 418.876,425.117 420.5,424C 433.016,423.502 445.35,424.835 457.5,428C 468.832,428.848 480.165,429.681 491.5,430.5C 484.452,440.914 475.452,449.248 464.5,455.5C 470.07,458.285 475.737,461.118 481.5,464C 483.759,465.715 485.926,467.548 488,469.5C 488.688,470.332 488.521,470.998 487.5,471.5C 479.783,473.313 471.95,474.313 464,474.5C 454.567,473.104 445.067,472.438 435.5,472.5C 434.824,479.241 433.657,485.907 432,492.5C 431.417,494.002 430.584,495.335 429.5,496.5C 423.942,497.929 418.276,498.596 412.5,498.5C 406.705,498.43 401.039,497.93 395.5,497C 393.877,501.21 391.877,505.21 389.5,509C 364.7,513.664 340.367,511.997 316.5,504C 310.649,503.245 304.816,502.412 299,501.5C 283.127,504.458 267.293,507.624 251.5,511C 238.469,511.799 225.469,511.466 212.5,510C 208.853,506.04 206.52,501.373 205.5,496C 198.134,497.418 190.634,498.252 183,498.5C 175.34,500.507 170.34,497.84 168,490.5C 166.212,484.635 165.379,478.635 165.5,472.5C 155.116,472.461 144.783,473.128 134.5,474.5C 127.445,474.153 120.445,473.32 113.5,472C 113.043,471.586 112.709,471.086 112.5,470.5C 119.033,463.393 127.033,458.56 136.5,456C 125.405,449.739 116.405,441.239 109.5,430.5C 128.173,429.708 146.506,427.375 164.5,423.5 Z"/></g>
<g><path style="opacity:1" fill="#faf8f7" d="M 288.5,456.5 C 295.175,456.334 301.842,456.5 308.5,457C 327.091,460.71 345.757,463.876 364.5,466.5C 368.569,466.496 372.569,465.996 376.5,465C 379.333,463.5 381.5,461.333 383,458.5C 388.919,463 392.252,469 393,476.5C 394.857,487.384 393.023,497.55 387.5,507C 363.021,510.445 339.021,508.445 315.5,501C 304.838,499.035 294.171,499.035 283.5,501C 260.324,508.669 236.657,510.502 212.5,506.5C 206.456,493.034 205.956,479.368 211,465.5C 212.458,463.04 214.291,460.873 216.5,459C 218.508,461.411 221.174,463.411 224.5,465C 234.183,466.723 243.85,466.39 253.5,464C 265.32,461.538 276.987,459.038 288.5,456.5 Z"/></g>
<g><path style="opacity:1" fill="#cc3334" d="M 276.5,469.5 C 278.792,469.244 280.959,469.577 283,470.5C 283.753,476.858 284.586,483.191 285.5,489.5C 284.167,489.5 282.833,489.5 281.5,489.5C 281.17,485.658 280.337,481.991 279,478.5C 278.417,482.832 277.917,487.165 277.5,491.5C 275.856,491.714 274.356,491.38 273,490.5C 268.616,478.622 267.449,479.289 269.5,492.5C 268.167,492.5 266.833,492.5 265.5,492.5C 264.745,485.461 263.745,478.461 262.5,471.5C 264.857,471.337 267.19,471.503 269.5,472C 270.872,475.243 272.372,478.409 274,481.5C 274.997,477.496 275.831,473.496 276.5,469.5 Z"/></g>
<g><path style="opacity:1" fill="#cb3335" d="M 364.5,477.5 C 369.511,477.334 374.511,477.501 379.5,478C 383.644,481.979 383.31,485.645 378.5,489C 380.5,491.667 382.5,494.333 384.5,497C 382.833,497.667 381.167,497.667 379.5,497C 377.145,494.073 374.478,491.573 371.5,489.5C 370.516,492.428 370.183,495.428 370.5,498.5C 368.833,498.5 367.167,498.5 365.5,498.5C 365.565,491.476 365.232,484.476 364.5,477.5 Z"/></g>
<g><path style="opacity:1" fill="#fcf3f1" d="M 369.5,481.5 C 372.167,481.5 374.833,481.5 377.5,481.5C 377.67,482.822 377.337,483.989 376.5,485C 374.26,485.977 371.927,486.477 369.5,486.5C 369.5,484.833 369.5,483.167 369.5,481.5 Z"/></g>
<g><path style="opacity:1" fill="#c92e32" d="M 349.5,476.5 C 353.831,475.451 355.997,477.118 356,481.5C 357.17,486.846 358.337,492.18 359.5,497.5C 357.955,498.452 356.288,498.785 354.5,498.5C 354.859,496.234 354.192,494.401 352.5,493C 348.437,491.905 344.937,492.739 342,495.5C 341.167,495.167 340.333,494.833 339.5,494.5C 343.365,488.768 346.698,482.768 349.5,476.5 Z"/></g>
<g><path style="opacity:1" fill="#fbd0cf" d="M 350.5,482.5 C 352.536,484.206 353.536,486.539 353.5,489.5C 351.833,489.5 350.167,489.5 348.5,489.5C 348.878,487.079 349.545,484.746 350.5,482.5 Z"/></g>
<g><path style="opacity:1" fill="#ca3033" d="M 221.5,476.5 C 225.516,475.9 229.016,476.9 232,479.5C 232.49,480.793 232.657,482.127 232.5,483.5C 229.545,481.614 226.211,480.614 222.5,480.5C 222.33,481.822 222.663,482.989 223.5,484C 230.631,484.784 233.465,488.618 232,495.5C 226.719,499.699 221.719,499.366 217,494.5C 216.51,493.207 216.343,491.873 216.5,490.5C 219.245,490.373 221.245,491.54 222.5,494C 224.441,494.743 226.274,494.576 228,493.5C 228.684,492.216 228.517,491.049 227.5,490C 217.756,488.235 215.756,483.735 221.5,476.5 Z"/></g>
<g><path style="opacity:1" fill="#ca3034" d="M 321.5,469.5 C 323.567,469.532 324.9,470.532 325.5,472.5C 324.669,474.473 324.502,476.473 325,478.5C 327.583,477.126 330.083,475.626 332.5,474C 335.053,473.149 337.386,473.482 339.5,475C 336.344,475.937 333.511,477.437 331,479.5C 330.911,484.476 332.077,489.142 334.5,493.5C 332.525,494.578 330.692,494.245 329,492.5C 328.719,488.821 327.552,485.488 325.5,482.5C 322.672,483.996 321.006,486.329 320.5,489.5C 319.349,490.731 318.183,490.731 317,489.5C 317.918,482.746 319.418,476.08 321.5,469.5 Z"/></g>
<g><path style="opacity:1" fill="#c83234" d="M 251.5,474.5 C 253.167,474.5 254.833,474.5 256.5,474.5C 257.134,480.496 257.3,486.496 257,492.5C 253.647,496.203 249.48,497.369 244.5,496C 243.667,495.167 242.833,494.333 242,493.5C 240.581,487.91 239.748,482.243 239.5,476.5C 240.833,476.5 242.167,476.5 243.5,476.5C 244.223,481.173 245.057,485.84 246,490.5C 247.836,492.604 250.002,492.938 252.5,491.5C 252.987,490.554 253.32,489.554 253.5,488.5C 252.669,483.85 252.002,479.183 251.5,474.5 Z"/></g>
<g><path style="opacity:1" fill="#cb2d31" d="M 293.5,467.5 C 298.5,467.5 303.5,467.5 308.5,467.5C 308.5,468.5 308.5,469.5 308.5,470.5C 304.833,470.5 301.167,470.5 297.5,470.5C 297.5,472.167 297.5,473.833 297.5,475.5C 301.167,475.5 304.833,475.5 308.5,475.5C 308.5,476.833 308.5,478.167 308.5,479.5C 304.833,479.5 301.167,479.5 297.5,479.5C 297.5,481.167 297.5,482.833 297.5,484.5C 301.167,484.5 304.833,484.5 308.5,484.5C 308.5,485.833 308.5,487.167 308.5,488.5C 303.453,488.663 298.453,488.329 293.5,487.5C 293.5,480.833 293.5,474.167 293.5,467.5 Z"/></g>
<g><path style="opacity:1" fill="#fbfbfb" d="M 170.5,443.5 C 172.7,446.858 175.7,449.358 179.5,451C 189.547,451.58 199.547,451.08 209.5,449.5C 212.089,449.527 214.589,449.861 217,450.5C 217.667,452.167 217.667,453.833 217,455.5C 211.637,459.215 207.97,464.215 206,470.5C 204.753,477.779 204.253,485.112 204.5,492.5C 197.85,494.474 191.017,495.474 184,495.5C 179.963,495.709 176.13,495.043 172.5,493.5C 166.971,476.942 166.305,460.275 170.5,443.5 Z"/></g>
<g><path style="opacity:1" fill="#fcfcfc" d="M 428.5,443.5 C 430.284,444.574 431.451,446.24 432,448.5C 432.667,458.5 432.667,468.5 432,478.5C 431.298,483.683 429.964,488.683 428,493.5C 416.942,496.59 406.109,495.923 395.5,491.5C 397.765,479.898 395.598,469.231 389,459.5C 387.587,457.586 385.753,456.253 383.5,455.5C 382.152,453.389 382.485,451.555 384.5,450C 386.5,449.833 388.5,449.667 390.5,449.5C 400.1,451.256 409.767,451.756 419.5,451C 423.908,450.084 426.908,447.584 428.5,443.5 Z"/></g>
<g><path style="opacity:1" fill="#f9f9f9" d="M 422.5,426.5 C 427.179,426.334 431.845,426.501 436.5,427C 452.689,430.232 469.022,432.399 485.5,433.5C 478.069,443.438 468.736,450.938 457.5,456C 464.048,459.186 470.715,462.186 477.5,465C 479.349,466.093 481.016,467.426 482.5,469C 476.828,470.763 470.995,471.596 465,471.5C 455.174,470.667 445.34,470.001 435.5,469.5C 435.83,461.107 435.33,452.773 434,444.5C 430.932,441.378 428.598,437.711 427,433.5C 425.127,431.291 422.96,429.458 420.5,428C 421.416,427.722 422.082,427.222 422.5,426.5 Z"/></g>
<g><path style="opacity:1" fill="#f9f9f9" d="M 163.5,426.5 C 169.021,426.054 174.355,426.554 179.5,428C 166.526,438.81 161.526,452.643 164.5,469.5C 154.469,469.728 144.469,470.394 134.5,471.5C 128.644,471.76 122.977,470.927 117.5,469C 125.64,463.597 134.307,459.263 143.5,456C 132.214,450.876 122.881,443.376 115.5,433.5C 131.798,432.225 147.798,429.892 163.5,426.5 Z"/></g>
<g><path style="opacity:1" fill="#100f05" d="M 469.5,333.5 C 470.5,332.167 471.5,332.167 472.5,333.5C 474.553,342.694 475.553,352.027 475.5,361.5C 472.822,360.999 470.822,359.499 469.5,357C 468.241,356.018 466.908,355.685 465.5,356C 467.118,361.004 467.785,366.171 467.5,371.5C 464.287,370.836 462.121,368.836 461,365.5C 458.603,362.6 455.77,360.267 452.5,358.5C 450.443,361.606 448.61,364.939 447,368.5C 438.605,377.689 435.439,375.689 437.5,362.5C 437.496,358.431 436.996,354.431 436,350.5C 434.907,352.349 433.574,354.016 432,355.5C 430.478,353.259 429.145,350.926 428,348.5C 427.293,350.081 426.46,351.581 425.5,353C 424.5,353.667 423.5,353.667 422.5,353C 416.303,343.479 410.136,333.979 404,324.5C 403.333,321.167 402.667,317.833 402,314.5C 401.764,307.072 401.597,299.739 401.5,292.5C 392.993,293.592 386.66,297.925 382.5,305.5C 384.031,311.192 384.697,317.026 384.5,323C 384.066,330.511 383.899,338.011 384,345.5C 400.192,362.884 406.859,383.55 404,407.5C 405.071,414.787 406.904,421.787 409.5,428.5C 409.608,432.36 408.275,435.526 405.5,438C 401.363,438.934 397.363,440.268 393.5,442C 391.421,442.808 389.421,442.641 387.5,441.5C 386.008,437.66 385.341,433.66 385.5,429.5C 386.372,423.561 387.372,417.561 388.5,411.5C 386.341,401.22 384.508,390.887 383,380.5C 380.527,376.694 377.361,373.527 373.5,371C 365.942,367.856 358.275,365.023 350.5,362.5C 350.167,362.833 349.833,363.167 349.5,363.5C 352.966,368.135 355.8,373.135 358,378.5C 360.073,386.2 357.24,390.7 349.5,392C 338.167,392.333 326.833,392.667 315.5,393C 311.751,393.708 308.084,394.708 304.5,396C 301.943,396.685 300.109,398.185 299,400.5C 298.926,404.701 298.093,408.701 296.5,412.5C 289.701,415.602 282.701,417.768 275.5,419C 275,418.5 274.5,418 274,417.5C 273.333,413.167 273.333,408.833 274,404.5C 280.09,392.179 288.256,381.346 298.5,372C 303.612,369.987 308.945,368.987 314.5,369C 307.722,363.856 301.222,358.356 295,352.5C 291.447,348.721 288.947,344.388 287.5,339.5C 272.173,340.344 256.84,340.511 241.5,340C 229.605,338.098 217.605,336.764 205.5,336C 198.929,334.941 192.596,333.108 186.5,330.5C 185.964,342.299 191.631,348.299 203.5,348.5C 204.407,356.792 204.74,365.125 204.5,373.5C 203.5,373.5 202.5,373.5 201.5,373.5C 201.5,374.5 201.5,375.5 201.5,376.5C 196.345,377.11 191.678,375.944 187.5,373C 177.807,365.978 170.307,357.145 165,346.5C 163.681,341.225 162.681,335.892 162,330.5C 161.027,327.221 159.527,324.221 157.5,321.5C 155.06,323.109 153.893,325.443 154,328.5C 153.333,336.167 153.333,343.833 154,351.5C 157.298,356.801 161.798,360.635 167.5,363C 164.127,369.58 160.627,376.08 157,382.5C 155.89,384.037 154.39,384.703 152.5,384.5C 152.5,385.5 152.5,386.5 152.5,387.5C 151.448,387.649 150.448,387.483 149.5,387C 132.918,374.6 127.085,358.1 132,337.5C 134.333,327.508 136.666,317.508 139,307.5C 139.465,306.069 140.299,304.903 141.5,304C 145.852,301.462 150.519,299.796 155.5,299C 163.074,290.987 171.074,290.487 179.5,297.5C 178.5,297.5 177.5,297.5 176.5,297.5C 172.813,295.156 168.813,294.323 164.5,295C 162.622,296.543 161.122,298.376 160,300.5C 158.13,309.216 160.13,316.883 166,323.5C 167.251,342.674 175.751,357.674 191.5,368.5C 192.664,361.858 192.831,355.192 192,348.5C 190.333,346.833 188.667,345.167 187,343.5C 185.263,345.625 183.096,346.458 180.5,346C 185.406,344.083 186.573,340.916 184,336.5C 181.833,338.667 179.667,340.833 177.5,343C 176.668,343.688 176.002,343.521 175.5,342.5C 178.189,339.48 180.856,336.48 183.5,333.5C 183.917,330.841 184.917,328.508 186.5,326.5C 193.515,328.226 200.515,330.06 207.5,332C 214.467,332.997 221.467,333.497 228.5,333.5C 229.609,333.443 230.609,333.11 231.5,332.5C 234.574,334.302 237.908,335.302 241.5,335.5C 245.351,336.809 249.351,336.809 253.5,335.5C 253.376,334.893 253.043,334.56 252.5,334.5C 251.729,326.542 252.563,326.542 255,334.5C 255.965,336.26 257.132,336.594 258.5,335.5C 255.993,333.192 255.326,330.525 256.5,327.5C 257.714,331.043 259.714,334.043 262.5,336.5C 262.833,336.167 263.167,335.833 263.5,335.5C 261.775,333.043 261.275,330.377 262,327.5C 262.725,329.949 263.725,332.283 265,334.5C 266.049,335.517 267.216,335.684 268.5,335C 266.405,332.71 265.738,330.21 266.5,327.5C 267.536,330.911 269.536,333.578 272.5,335.5C 272.833,335.333 273.167,335.167 273.5,335C 271.405,332.71 270.738,330.21 271.5,327.5C 272.536,330.911 274.536,333.578 277.5,335.5C 277.833,335.333 278.167,335.167 278.5,335C 275.944,332.494 274.944,329.661 275.5,326.5C 277.12,330.082 279.453,333.082 282.5,335.5C 282.833,335.333 283.167,335.167 283.5,335C 281.218,332.603 279.884,329.769 279.5,326.5C 281.395,329.231 283.562,331.898 286,334.5C 286.5,334.333 287,334.167 287.5,334C 285.635,331.412 284.802,328.578 285,325.5C 286.145,327.926 287.478,330.259 289,332.5C 290.133,334.211 291.633,334.711 293.5,334C 291.136,331.701 290.136,329.201 290.5,326.5C 292.147,329.473 294.147,332.14 296.5,334.5C 296.833,334.167 297.167,333.833 297.5,333.5C 295.545,331.332 294.879,328.998 295.5,326.5C 297.043,329.086 298.709,331.586 300.5,334C 307.492,334.5 314.492,334.666 321.5,334.5C 321.833,335.167 322.167,335.833 322.5,336.5C 311.833,336.5 301.167,336.5 290.5,336.5C 290.841,339.516 292.007,342.182 294,344.5C 304.411,354.925 315.578,364.258 327.5,372.5C 326.311,373.429 324.978,373.762 323.5,373.5C 323.662,375.527 323.495,377.527 323,379.5C 321.806,377.377 321.14,375.043 321,372.5C 319.274,371.424 317.441,371.257 315.5,372C 317.595,374.29 318.262,376.79 317.5,379.5C 316.298,376.93 314.965,374.43 313.5,372C 311.288,371.211 309.288,371.378 307.5,372.5C 306.833,372.5 306.167,372.5 305.5,372.5C 297.967,372.768 297.134,374.768 303,378.5C 303.749,379.635 303.583,380.635 302.5,381.5C 301.509,379.677 300.176,378.177 298.5,377C 295.478,376.364 293.978,377.53 294,380.5C 296.696,381.19 298.863,382.69 300.5,385C 297.454,383.354 294.12,382.688 290.5,383C 284.995,389.519 280.662,396.685 277.5,404.5C 278.167,405.167 278.833,405.833 279.5,406.5C 278.5,406.5 277.5,406.5 276.5,406.5C 276.104,409.482 276.771,412.149 278.5,414.5C 284.417,412.189 290.417,410.189 296.5,408.5C 296.5,406.167 296.5,403.833 296.5,401.5C 296.5,400.833 296.5,400.167 296.5,399.5C 297.131,397.552 298.131,395.719 299.5,394C 304.314,391.59 309.314,389.757 314.5,388.5C 324.855,388.832 335.188,388.499 345.5,387.5C 345.376,386.893 345.043,386.56 344.5,386.5C 341.984,385.4 340.984,383.733 341.5,381.5C 343.874,384.108 346.707,386.108 350,387.5C 355.794,386.24 357.628,382.907 355.5,377.5C 352.568,371.245 349.234,365.245 345.5,359.5C 345.833,358.5 346.5,357.833 347.5,357.5C 353.208,358.958 358.875,360.624 364.5,362.5C 367.197,363.93 370.031,365.263 373,366.5C 374.739,364.259 376.906,362.592 379.5,361.5C 380.521,362.002 380.688,362.668 380,363.5C 378.028,364.305 376.528,365.639 375.5,367.5C 376.576,368.656 377.576,368.489 378.5,367C 380.5,366.333 382.5,366.333 384.5,367C 382.221,367.473 380.221,368.473 378.5,370C 379.025,370.692 379.692,371.192 380.5,371.5C 382.632,369.883 384.965,369.383 387.5,370C 386.109,371.02 384.609,371.853 383,372.5C 382.437,373.725 382.77,374.725 384,375.5C 386.202,373.259 388.702,372.592 391.5,373.5C 388.61,374.44 386.277,376.107 384.5,378.5C 387.236,377.584 390.236,377.584 393.5,378.5C 388.043,378.789 385.71,381.622 386.5,387C 388.237,396.781 389.57,406.614 390.5,416.5C 400.829,417.2 400.496,418.033 389.5,419C 388.287,421.687 387.62,424.52 387.5,427.5C 393.765,427.56 399.265,425.56 404,421.5C 404.863,417.961 404.03,414.961 401.5,412.5C 399.458,414.412 397.458,414.579 395.5,413C 403.39,410.155 403.39,408.655 395.5,408.5C 397.173,406.914 399.173,406.247 401.5,406.5C 401.5,405.5 401.5,404.5 401.5,403.5C 399.401,404.231 397.401,404.231 395.5,403.5C 396.85,402.05 398.516,401.383 400.5,401.5C 400.5,400.5 400.5,399.5 400.5,398.5C 398.181,399.167 395.847,399.334 393.5,399C 394.949,397.883 396.616,397.216 398.5,397C 399.357,396.311 400.023,395.478 400.5,394.5C 398.246,394.754 395.913,394.754 393.5,394.5C 396.07,393.298 398.57,391.965 401,390.5C 401.521,378.391 398.187,367.391 391,357.5C 387.667,353.5 384.333,349.5 381,345.5C 381.887,338.246 382.387,330.912 382.5,323.5C 382.938,316.58 381.938,309.913 379.5,303.5C 379.557,302.391 379.89,301.391 380.5,300.5C 384.711,296.123 389.378,292.29 394.5,289C 398.475,287.621 401.309,288.787 403,292.5C 403.333,300.167 403.667,307.833 404,315.5C 404.72,319.716 406.053,323.716 408,327.5C 413.506,334.52 418.506,341.854 423,349.5C 424.692,346.356 425.858,343.023 426.5,339.5C 428.719,342.124 430.386,345.124 431.5,348.5C 432.95,347.15 433.617,345.484 433.5,343.5C 434.5,343.5 435.5,343.5 436.5,343.5C 438.706,351.671 439.873,360.005 440,368.5C 444.574,364.016 447.574,358.682 449,352.5C 454.255,355.751 458.922,359.751 463,364.5C 463.467,359.733 462.967,355.067 461.5,350.5C 464.841,350.656 467.674,351.989 470,354.5C 470.72,347.464 470.553,340.464 469.5,333.5 Z"/></g>
<g><path style="opacity:1" fill="#efe312" d="M 404.5,423.5 C 405.693,423.97 406.36,424.97 406.5,426.5C 406.547,429.212 405.547,431.378 403.5,433C 399.086,433.86 394.753,435.027 390.5,436.5C 389.558,436.392 388.725,436.059 388,435.5C 387.505,433.527 387.338,431.527 387.5,429.5C 393.807,429.066 399.474,427.066 404.5,423.5 Z"/></g>
<g><path style="opacity:1" fill="#efe111" d="M 296.5,401.5 C 296.5,403.833 296.5,406.167 296.5,408.5C 290.417,410.189 284.417,412.189 278.5,414.5C 276.771,412.149 276.104,409.482 276.5,406.5C 277.5,406.5 278.5,406.5 279.5,406.5C 285.319,405.296 290.985,403.629 296.5,401.5 Z"/></g>
<g><path style="opacity:1" fill="#30380b" d="M 296.5,399.5 C 296.5,400.167 296.5,400.833 296.5,401.5C 290.985,403.629 285.319,405.296 279.5,406.5C 278.833,405.833 278.167,405.167 277.5,404.5C 284.054,403.612 290.387,401.945 296.5,399.5 Z"/></g>
<g><path style="opacity:1" fill="#827a05" d="M 344.5,386.5 C 345.043,386.56 345.376,386.893 345.5,387.5C 335.188,388.499 324.855,388.832 314.5,388.5C 324.5,387.833 334.5,387.167 344.5,386.5 Z"/></g>
<g><path style="opacity:1" fill="#ede011" d="M 160.5,361.5 C 162.311,361.572 163.644,362.405 164.5,364C 161.553,370.062 158.22,375.895 154.5,381.5C 152.023,380.854 150.356,379.354 149.5,377C 153.371,371.965 157.038,366.798 160.5,361.5 Z"/></g>
<g><path style="opacity:1" fill="#f5e70c" d="M 322.5,336.5 C 324.898,339.571 326.898,342.905 328.5,346.5C 328.833,347.833 329.167,349.167 329.5,350.5C 329.167,350.5 328.833,350.5 328.5,350.5C 327.596,349.791 327.263,348.791 327.5,347.5C 325.821,347.715 324.821,347.048 324.5,345.5C 324.294,343.451 323.461,343.117 322,344.5C 321.086,346.664 319.919,348.664 318.5,350.5C 318.833,350.833 319.167,351.167 319.5,351.5C 320.735,350.66 321.735,349.66 322.5,348.5C 323.404,349.209 323.737,350.209 323.5,351.5C 322.833,352.5 322.167,353.5 321.5,354.5C 320.957,354.56 320.624,354.893 320.5,355.5C 321.325,356.386 322.325,356.719 323.5,356.5C 323.5,357.5 323.5,358.5 323.5,359.5C 325.959,359.31 327.626,360.31 328.5,362.5C 329.609,362.443 330.609,362.11 331.5,361.5C 332.117,361.389 332.617,361.056 333,360.5C 332.645,361.959 332.811,363.293 333.5,364.5C 333.5,364.833 333.5,365.167 333.5,365.5C 332.957,365.56 332.624,365.893 332.5,366.5C 333.325,367.386 334.325,367.719 335.5,367.5C 335.5,369.5 335.5,371.5 335.5,373.5C 337.5,373.5 339.5,373.5 341.5,373.5C 341.5,374.5 341.5,375.5 341.5,376.5C 341.369,377.376 341.702,378.043 342.5,378.5C 344.277,376.107 346.61,374.44 349.5,373.5C 348.675,372.614 347.675,372.281 346.5,372.5C 345.508,372.672 344.842,372.338 344.5,371.5C 346.776,371.244 347.943,369.91 348,367.5C 348.899,369.516 350.233,371.183 352,372.5C 352.64,374.265 352.473,375.932 351.5,377.5C 349.254,378.21 346.92,378.71 344.5,379C 347.949,381.143 350.949,380.643 353.5,377.5C 353.938,376.494 354.604,376.494 355.5,377.5C 357.628,382.907 355.794,386.24 350,387.5C 346.707,386.108 343.874,384.108 341.5,381.5C 340.984,383.733 341.984,385.4 344.5,386.5C 334.5,387.167 324.5,387.833 314.5,388.5C 309.314,389.757 304.314,391.59 299.5,394C 298.131,395.719 297.131,397.552 296.5,399.5C 290.387,401.945 284.054,403.612 277.5,404.5C 280.662,396.685 284.995,389.519 290.5,383C 294.12,382.688 297.454,383.354 300.5,385C 298.863,382.69 296.696,381.19 294,380.5C 293.978,377.53 295.478,376.364 298.5,377C 300.176,378.177 301.509,379.677 302.5,381.5C 303.583,380.635 303.749,379.635 303,378.5C 297.134,374.768 297.967,372.768 305.5,372.5C 307.562,374.37 308.895,376.703 309.5,379.5C 311.095,376.457 310.428,374.124 307.5,372.5C 309.288,371.378 311.288,371.211 313.5,372C 314.965,374.43 316.298,376.93 317.5,379.5C 318.262,376.79 317.595,374.29 315.5,372C 317.441,371.257 319.274,371.424 321,372.5C 321.14,375.043 321.806,377.377 323,379.5C 323.495,377.527 323.662,375.527 323.5,373.5C 324.978,373.762 326.311,373.429 327.5,372.5C 315.578,364.258 304.411,354.925 294,344.5C 292.007,342.182 290.841,339.516 290.5,336.5C 301.167,336.5 311.833,336.5 322.5,336.5 Z"/></g>
<g><path style="opacity:1" fill="#272106" d="M 351.5,377.5 C 352.167,377.5 352.833,377.5 353.5,377.5C 350.949,380.643 347.949,381.143 344.5,379C 346.92,378.71 349.254,378.21 351.5,377.5 Z"/></g>
<g><path style="opacity:1" fill="#241d05" d="M 346.5,372.5 C 347.675,372.281 348.675,372.614 349.5,373.5C 346.61,374.44 344.277,376.107 342.5,378.5C 341.702,378.043 341.369,377.376 341.5,376.5C 343.191,375.136 344.858,373.803 346.5,372.5 Z"/></g>
<g><path style="opacity:1" fill="#323d0c" d="M 305.5,372.5 C 306.167,372.5 306.833,372.5 307.5,372.5C 310.428,374.124 311.095,376.457 309.5,379.5C 308.895,376.703 307.562,374.37 305.5,372.5 Z"/></g>
<g><path style="opacity:1" fill="#1d1b03" d="M 333.5,365.5 C 333.5,365.167 333.5,364.833 333.5,364.5C 335.614,363.093 337.114,361.093 338,358.5C 339.041,361.636 338.207,364.136 335.5,366C 334.563,366.692 333.897,366.525 333.5,365.5 Z"/></g>
<g><path style="opacity:1" fill="#211c04" d="M 376.5,359.5 C 376.119,360.931 375.119,361.764 373.5,362C 370.518,362.498 367.518,362.665 364.5,362.5C 368.044,360.631 372.044,359.631 376.5,359.5 Z"/></g>
<g><path style="opacity:1" fill="#d2c725" d="M 353.5,347.5 C 354.209,346.596 355.209,346.263 356.5,346.5C 356.433,347.959 356.766,349.292 357.5,350.5C 354.021,352.122 350.355,353.289 346.5,354C 349.855,354.729 353.188,355.562 356.5,356.5C 359.176,356.163 361.843,355.83 364.5,355.5C 364.842,356.338 365.508,356.672 366.5,356.5C 363.972,357.166 361.306,357.832 358.5,358.5C 362.626,359.818 366.626,359.485 370.5,357.5C 370.043,356.702 369.376,356.369 368.5,356.5C 369.209,355.596 370.209,355.263 371.5,355.5C 371.5,356.5 371.5,357.5 371.5,358.5C 373.415,358.216 375.081,358.549 376.5,359.5C 372.044,359.631 368.044,360.631 364.5,362.5C 358.875,360.624 353.208,358.958 347.5,357.5C 345.739,356.687 344.072,355.687 342.5,354.5C 344.993,354.869 345.66,354.203 344.5,352.5C 348.638,352.054 352.305,350.554 355.5,348C 354.906,347.536 354.239,347.369 353.5,347.5 Z"/></g>
<g><path style="opacity:1" fill="#221d04" d="M 366.5,356.5 C 367.167,356.5 367.833,356.5 368.5,356.5C 369.376,356.369 370.043,356.702 370.5,357.5C 366.626,359.485 362.626,359.818 358.5,358.5C 361.306,357.832 363.972,357.166 366.5,356.5 Z"/></g>
<g><path style="opacity:1" fill="#e2d513" d="M 324.5,345.5 C 324.821,347.048 325.821,347.715 327.5,347.5C 327.263,348.791 327.596,349.791 328.5,350.5C 327.874,353.315 326.54,355.815 324.5,358C 328.833,357.149 330.5,354.649 329.5,350.5C 329.167,349.167 328.833,347.833 328.5,346.5C 330.969,349.134 333.636,351.634 336.5,354C 339.678,355.706 342.678,357.539 345.5,359.5C 349.234,365.245 352.568,371.245 355.5,377.5C 354.604,376.494 353.938,376.494 353.5,377.5C 352.833,377.5 352.167,377.5 351.5,377.5C 352.473,375.932 352.64,374.265 352,372.5C 350.233,371.183 348.899,369.516 348,367.5C 347.943,369.91 346.776,371.244 344.5,371.5C 344.842,372.338 345.508,372.672 346.5,372.5C 344.858,373.803 343.191,375.136 341.5,376.5C 341.5,375.5 341.5,374.5 341.5,373.5C 339.5,373.5 337.5,373.5 335.5,373.5C 335.5,371.5 335.5,369.5 335.5,367.5C 334.325,367.719 333.325,367.386 332.5,366.5C 332.624,365.893 332.957,365.56 333.5,365.5C 333.897,366.525 334.563,366.692 335.5,366C 338.207,364.136 339.041,361.636 338,358.5C 337.114,361.093 335.614,363.093 333.5,364.5C 332.811,363.293 332.645,361.959 333,360.5C 332.617,361.056 332.117,361.389 331.5,361.5C 332.146,359.844 332.813,358.177 333.5,356.5C 333.167,355.833 332.833,355.167 332.5,354.5C 331.145,357.211 329.811,359.878 328.5,362.5C 327.626,360.31 325.959,359.31 323.5,359.5C 323.5,358.5 323.5,357.5 323.5,356.5C 322.325,356.719 321.325,356.386 320.5,355.5C 320.624,354.893 320.957,354.56 321.5,354.5C 322.793,355.645 323.959,355.311 325,353.5C 325.402,352.128 325.902,350.795 326.5,349.5C 326.167,349.167 325.833,348.833 325.5,348.5C 324.824,349.602 324.158,350.602 323.5,351.5C 323.737,350.209 323.404,349.209 322.5,348.5C 322.427,346.973 323.094,345.973 324.5,345.5 Z"/></g>
<g><path style="opacity:1" fill="#1a1302" d="M 344.5,371.5 C 342.545,372.323 340.545,372.49 338.5,372C 341.025,370.384 343.691,369.384 346.5,369C 345.619,369.708 344.953,370.542 344.5,371.5 Z"/></g>
<g><path style="opacity:1" fill="#1f1b03" d="M 340.5,362.5 C 341.859,365.822 340.859,368.489 337.5,370.5C 337.167,370.167 336.833,369.833 336.5,369.5C 338.582,367.578 339.916,365.245 340.5,362.5 Z"/></g>
<g><path style="opacity:1" fill="#231c04" d="M 331.5,361.5 C 330.609,362.11 329.609,362.443 328.5,362.5C 329.811,359.878 331.145,357.211 332.5,354.5C 332.833,355.167 333.167,355.833 333.5,356.5C 332.813,358.177 332.146,359.844 331.5,361.5 Z"/></g>
<g><path style="opacity:1" fill="#191502" d="M 357.5,350.5 C 358.043,350.56 358.376,350.893 358.5,351.5C 357.335,352.584 356.002,353.417 354.5,354C 357.38,354.684 360.213,354.517 363,353.5C 364.03,353.836 364.53,354.503 364.5,355.5C 361.843,355.83 359.176,356.163 356.5,356.5C 353.188,355.562 349.855,354.729 346.5,354C 350.355,353.289 354.021,352.122 357.5,350.5 Z"/></g>
<g><path style="opacity:1" fill="#2a2107" d="M 328.5,350.5 C 328.833,350.5 329.167,350.5 329.5,350.5C 330.5,354.649 328.833,357.149 324.5,358C 326.54,355.815 327.874,353.315 328.5,350.5 Z"/></g>
<g><path style="opacity:1" fill="#e6d810" d="M 194.5,350.5 C 197.167,350.5 199.833,350.5 202.5,350.5C 202.5,357.5 202.5,364.5 202.5,371.5C 199.794,371.425 197.127,371.092 194.5,370.5C 194.5,363.833 194.5,357.167 194.5,350.5 Z"/></g>
<g><path style="opacity:1" fill="#211805" d="M 321.5,354.5 C 322.167,353.5 322.833,352.5 323.5,351.5C 324.158,350.602 324.824,349.602 325.5,348.5C 325.833,348.833 326.167,349.167 326.5,349.5C 325.902,350.795 325.402,352.128 325,353.5C 323.959,355.311 322.793,355.645 321.5,354.5 Z"/></g>
<g><path style="opacity:1" fill="#4c5009" d="M 138.5,349.5 C 137.539,351.265 137.205,353.265 137.5,355.5C 136.203,353.307 136.203,350.973 137.5,348.5C 138.107,348.624 138.44,348.957 138.5,349.5 Z"/></g>
<g><path style="opacity:1" fill="#f4e60d" d="M 176.5,297.5 C 177.568,298.434 178.901,298.768 180.5,298.5C 181.528,308.482 182.028,318.482 182,328.5C 179.167,331.333 176.333,334.167 173.5,337C 174.5,337.667 175.5,337.667 176.5,337C 178.667,334.833 180.833,332.667 183,330.5C 183.483,331.448 183.649,332.448 183.5,333.5C 180.856,336.48 178.189,339.48 175.5,342.5C 176.002,343.521 176.668,343.688 177.5,343C 179.667,340.833 181.833,338.667 184,336.5C 186.573,340.916 185.406,344.083 180.5,346C 183.096,346.458 185.263,345.625 187,343.5C 188.667,345.167 190.333,346.833 192,348.5C 192.831,355.192 192.664,361.858 191.5,368.5C 175.751,357.674 167.251,342.674 166,323.5C 160.13,316.883 158.13,309.216 160,300.5C 161.122,298.376 162.622,296.543 164.5,295C 168.813,294.323 172.813,295.156 176.5,297.5 Z"/></g>
<g><path style="opacity:1" fill="#251904" d="M 324.5,345.5 C 323.094,345.973 322.427,346.973 322.5,348.5C 321.735,349.66 320.735,350.66 319.5,351.5C 319.167,351.167 318.833,350.833 318.5,350.5C 319.919,348.664 321.086,346.664 322,344.5C 323.461,343.117 324.294,343.451 324.5,345.5 Z"/></g>
<g><path style="opacity:1" fill="#1f1d06" d="M 316.5,323.5 C 320.267,326.932 323.267,330.932 325.5,335.5C 328.188,344.572 333.855,350.905 342.5,354.5C 344.072,355.687 345.739,356.687 347.5,357.5C 346.5,357.833 345.833,358.5 345.5,359.5C 342.678,357.539 339.678,355.706 336.5,354C 333.636,351.634 330.969,349.134 328.5,346.5C 326.898,342.905 324.898,339.571 322.5,336.5C 322.167,335.833 321.833,335.167 321.5,334.5C 320.874,331.685 319.54,329.185 317.5,327C 314.798,325.66 312.131,324.327 309.5,323C 311.847,322.666 314.181,322.833 316.5,323.5 Z"/></g>
<g><path style="opacity:1" fill="#776f07" d="M 252.5,334.5 C 253.043,334.56 253.376,334.893 253.5,335.5C 249.351,336.809 245.351,336.809 241.5,335.5C 245.371,335.815 249.038,335.482 252.5,334.5 Z"/></g>
<g><path style="opacity:1" fill="#d4c91b" d="M 318.5,320.5 C 318.414,321.496 318.748,322.329 319.5,323C 321.81,323.497 324.143,323.663 326.5,323.5C 327.568,324.434 328.901,324.768 330.5,324.5C 327.572,325.187 324.572,325.521 321.5,325.5C 324.428,326.484 327.428,326.817 330.5,326.5C 330.842,327.338 331.508,327.672 332.5,327.5C 330.362,327.938 328.028,328.105 325.5,328C 326.944,329.064 328.611,329.564 330.5,329.5C 332.333,329.415 333.666,328.748 334.5,327.5C 335.404,328.209 335.737,329.209 335.5,330.5C 332.5,330.5 329.5,330.5 326.5,330.5C 326.371,332.216 326.038,333.883 325.5,335.5C 323.267,330.932 320.267,326.932 316.5,323.5C 317.167,322.5 317.833,321.5 318.5,320.5 Z"/></g>
<g><path style="opacity:1" fill="#201b03" d="M 177.5,325.5 C 178.573,326.251 178.74,327.251 178,328.5C 176.446,331.102 174.28,332.269 171.5,332C 173.706,329.963 175.706,327.797 177.5,325.5 Z"/></g>
<g><path style="opacity:1" fill="#eee010" d="M 137.5,355.5 C 137.205,353.265 137.539,351.265 138.5,349.5C 140.16,351.248 142.16,351.748 144.5,351C 142.246,349.623 140.08,348.123 138,346.5C 137.251,345.365 137.417,344.365 138.5,343.5C 140.228,345.226 142.228,346.559 144.5,347.5C 144.833,347.167 145.167,346.833 145.5,346.5C 141.833,344.833 139.167,342.167 137.5,338.5C 137.833,338.167 138.167,337.833 138.5,337.5C 139.981,338.48 141.315,339.647 142.5,341C 144.044,342.187 145.711,342.52 147.5,342C 143.821,339.654 140.821,336.654 138.5,333C 138.833,332.5 139.167,332 139.5,331.5C 141.316,332.815 142.983,334.315 144.5,336C 145.635,336.749 146.635,336.583 147.5,335.5C 143.097,333.954 140.93,330.954 141,326.5C 142.739,328.741 144.906,330.408 147.5,331.5C 147.833,331.167 148.167,330.833 148.5,330.5C 145.292,328.793 142.959,326.293 141.5,323C 141.667,322.5 141.833,322 142,321.5C 143.739,323.741 145.906,325.408 148.5,326.5C 148.833,326.167 149.167,325.833 149.5,325.5C 146.585,324.296 144.419,322.296 143,319.5C 142.67,313.492 144.17,307.992 147.5,303C 150.726,301.801 154.059,301.301 157.5,301.5C 157.148,306.485 157.815,311.319 159.5,316C 155.833,318.667 153.333,322.167 152,326.5C 151.667,335.5 151.333,344.5 151,353.5C 149.365,354.726 147.865,356.059 146.5,357.5C 149.124,358.116 151.291,357.116 153,354.5C 155.018,356.35 156.851,358.35 158.5,360.5C 156.008,366.497 152.175,371.497 147,375.5C 141.254,370.111 138.087,363.444 137.5,355.5 Z"/></g>
<g><path style="opacity:1" fill="#e9dd14" d="M 268.5,315.5 C 268.192,317.924 268.526,320.257 269.5,322.5C 270.298,322.043 270.631,321.376 270.5,320.5C 271.799,322.153 271.466,323.653 269.5,325C 270.448,325.483 271.448,325.649 272.5,325.5C 272.89,322.161 273.39,318.827 274,315.5C 275.579,314.2 276.745,314.534 277.5,316.5C 276.25,316.577 275.417,317.244 275,318.5C 274.333,320.5 274.333,322.5 275,324.5C 275.21,322.942 275.71,321.609 276.5,320.5C 276.621,323.105 277.621,325.105 279.5,326.5C 279.884,329.769 281.218,332.603 283.5,335C 283.167,335.167 282.833,335.333 282.5,335.5C 279.453,333.082 277.12,330.082 275.5,326.5C 274.944,329.661 275.944,332.494 278.5,335C 278.167,335.167 277.833,335.333 277.5,335.5C 274.536,333.578 272.536,330.911 271.5,327.5C 270.738,330.21 271.405,332.71 273.5,335C 273.167,335.167 272.833,335.333 272.5,335.5C 269.536,333.578 267.536,330.911 266.5,327.5C 265.738,330.21 266.405,332.71 268.5,335C 267.216,335.684 266.049,335.517 265,334.5C 263.725,332.283 262.725,329.949 262,327.5C 261.275,330.377 261.775,333.043 263.5,335.5C 263.167,335.833 262.833,336.167 262.5,336.5C 259.714,334.043 257.714,331.043 256.5,327.5C 255.326,330.525 255.993,333.192 258.5,335.5C 257.132,336.594 255.965,336.26 255,334.5C 252.563,326.542 251.729,326.542 252.5,334.5C 249.038,335.482 245.371,335.815 241.5,335.5C 237.908,335.302 234.574,334.302 231.5,332.5C 231.389,331.883 231.056,331.383 230.5,331C 235.996,330.364 241.329,329.197 246.5,327.5C 246.063,329.074 245.063,330.241 243.5,331C 245.569,331.324 245.902,332.158 244.5,333.5C 246.833,334.833 249.167,334.833 251.5,333.5C 250.894,331.291 250.227,329.124 249.5,327C 252.224,326.73 254.891,326.23 257.5,325.5C 258.086,325.709 258.586,326.043 259,326.5C 259.662,325.016 260.496,323.683 261.5,322.5C 260.883,322.389 260.383,322.056 260,321.5C 259.503,318.854 259.336,316.187 259.5,313.5C 258.5,313.5 257.5,313.5 256.5,313.5C 256.802,316.059 256.468,318.393 255.5,320.5C 255.806,317.615 255.473,314.948 254.5,312.5C 255.801,311.36 256.968,310.027 258,308.5C 258.691,310.891 259.691,310.891 261,308.5C 261.667,309.833 262.667,310.833 264,311.5C 264.089,315.028 264.756,318.362 266,321.5C 266.002,318.949 266.836,316.949 268.5,315.5 Z"/></g>
<g><path style="opacity:1" fill="#1d1502" d="M 174.5,319.5 C 176.028,319.517 176.528,320.184 176,321.5C 174.641,323.692 172.808,325.359 170.5,326.5C 170.167,326.167 169.833,325.833 169.5,325.5C 171.938,324.069 173.604,322.069 174.5,319.5 Z"/></g>
<g><path style="opacity:1" fill="#1d1602" d="M 172.5,313.5 C 174.028,313.517 174.528,314.184 174,315.5C 172.595,317.651 170.761,319.318 168.5,320.5C 168.167,320.167 167.833,319.833 167.5,319.5C 169.914,318.089 171.581,316.089 172.5,313.5 Z"/></g>
<g><path style="opacity:1" fill="#1b1805" d="M 204.5,287.5 C 205.003,290.846 205.67,294.179 206.5,297.5C 207.169,295.369 207.835,293.369 208.5,291.5C 209.067,293.03 209.733,294.53 210.5,296C 218.07,295.539 225.07,297.205 231.5,301C 225.866,299.36 220.033,298.527 214,298.5C 208.494,298.814 202.994,299.147 197.5,299.5C 192.5,299.5 187.5,299.5 182.5,299.5C 182.263,300.791 182.596,301.791 183.5,302.5C 183.5,305.5 183.5,308.5 183.5,311.5C 184.833,311.5 186.167,311.5 187.5,311.5C 188.224,302.501 189.057,302.835 190,312.5C 191.011,313.337 192.178,313.67 193.5,313.5C 194.007,301.518 194.84,301.518 196,313.5C 196.689,314.357 197.522,315.023 198.5,315.5C 199.167,312.5 199.833,309.5 200.5,306.5C 200.487,309.58 200.82,312.913 201.5,316.5C 202.5,316.5 203.5,316.5 204.5,316.5C 204.183,313.428 204.516,310.428 205.5,307.5C 206.2,311.041 206.867,314.541 207.5,318C 214.926,320.547 221.926,323.881 228.5,328C 233.964,328.852 239.298,328.352 244.5,326.5C 245.416,326.543 246.083,326.876 246.5,327.5C 241.329,329.197 235.996,330.364 230.5,331C 231.056,331.383 231.389,331.883 231.5,332.5C 230.609,333.11 229.609,333.443 228.5,333.5C 228.607,331.097 227.607,329.264 225.5,328C 212.202,321.068 198.202,316.234 183.5,313.5C 183.335,317.182 183.501,320.848 184,324.5C 184.995,325.066 185.828,325.733 186.5,326.5C 184.917,328.508 183.917,330.841 183.5,333.5C 183.649,332.448 183.483,331.448 183,330.5C 180.833,332.667 178.667,334.833 176.5,337C 175.5,337.667 174.5,337.667 173.5,337C 176.333,334.167 179.167,331.333 182,328.5C 182.028,318.482 181.528,308.482 180.5,298.5C 178.901,298.768 177.568,298.434 176.5,297.5C 177.5,297.5 178.5,297.5 179.5,297.5C 187.86,297.831 196.193,297.498 204.5,296.5C 203.217,293.365 203.217,290.365 204.5,287.5 Z"/></g>
<g><path style="opacity:1" fill="#f1e409" d="M 228.5,333.5 C 221.467,333.497 214.467,332.997 207.5,332C 200.515,330.06 193.515,328.226 186.5,326.5C 185.828,325.733 184.995,325.066 184,324.5C 183.501,320.848 183.335,317.182 183.5,313.5C 198.202,316.234 212.202,321.068 225.5,328C 227.607,329.264 228.607,331.097 228.5,333.5 Z"/></g>
<g><path style="opacity:1" fill="#6e670c" d="M 197.5,299.5 C 192.579,299.862 187.913,300.862 183.5,302.5C 182.596,301.791 182.263,300.791 182.5,299.5C 187.5,299.5 192.5,299.5 197.5,299.5 Z"/></g>
<g><path style="opacity:1" fill="#6f5f09" d="M 375.5,296.5 C 377.179,297.916 378.846,299.25 380.5,300.5C 379.89,301.391 379.557,302.391 379.5,303.5C 377.917,301.337 376.584,299.004 375.5,296.5 Z"/></g>
<g><path style="opacity:1" fill="#f4e60b" d="M 469.5,333.5 C 470.553,340.464 470.72,347.464 470,354.5C 467.674,351.989 464.841,350.656 461.5,350.5C 462.967,355.067 463.467,359.733 463,364.5C 458.922,359.751 454.255,355.751 449,352.5C 447.574,358.682 444.574,364.016 440,368.5C 439.873,360.005 438.706,351.671 436.5,343.5C 435.5,343.5 434.5,343.5 433.5,343.5C 433.617,345.484 432.95,347.15 431.5,348.5C 430.386,345.124 428.719,342.124 426.5,339.5C 425.858,343.023 424.692,346.356 423,349.5C 418.506,341.854 413.506,334.52 408,327.5C 406.053,323.716 404.72,319.716 404,315.5C 403.667,307.833 403.333,300.167 403,292.5C 401.309,288.787 398.475,287.621 394.5,289C 389.378,292.29 384.711,296.123 380.5,300.5C 378.846,299.25 377.179,297.916 375.5,296.5C 375.351,295.448 375.517,294.448 376,293.5C 383.5,286.667 391,279.833 398.5,273C 408.86,264.985 418.36,265.818 427,275.5C 433.553,289.049 442.053,301.215 452.5,312C 461.178,316.892 466.845,324.058 469.5,333.5 Z"/></g>
<g><path style="opacity:1" fill="#2e2706" d="M 456.5,325.5 C 459.822,326.658 461.988,328.992 463,332.5C 463.667,336.5 463.667,340.5 463,344.5C 461.869,339.936 460.869,335.269 460,330.5C 458.198,329.211 457.031,327.544 456.5,325.5 Z"/></g>
<g><path style="opacity:1" fill="#201b03" d="M 449.5,319.5 C 451.548,323.399 453.715,327.399 456,331.5C 456.821,334.554 456.655,337.554 455.5,340.5C 453.786,333.409 451.786,326.409 449.5,319.5 Z"/></g>
<g><path style="opacity:1" fill="#1d1802" d="M 441.5,318.5 C 447.381,321.418 450.047,326.252 449.5,333C 449.167,334.5 448.833,336 448.5,337.5C 447.675,333.878 447.175,330.211 447,326.5C 444.92,323.935 443.087,321.268 441.5,318.5 Z"/></g>
<g><path style="opacity:1" fill="#231d05" d="M 428.5,312.5 C 431.958,317.161 434.292,322.495 435.5,328.5C 435.167,329.5 434.833,330.5 434.5,331.5C 432.761,325.038 430.761,318.705 428.5,312.5 Z"/></g>
<g><path style="opacity:1" fill="#1d1702" d="M 435.5,315.5 C 438.197,319.194 440.697,323.194 443,327.5C 443.874,330.379 443.54,333.045 442,335.5C 441.667,333.167 441.333,330.833 441,328.5C 438.62,324.406 436.787,320.073 435.5,315.5 Z"/></g>
<g><path style="opacity:1" fill="#251e06" d="M 421.5,305.5 C 423.649,310.807 426.149,316.141 429,321.5C 429.818,324.227 429.652,326.894 428.5,329.5C 427.427,323.364 425.26,317.698 422,312.5C 421.503,310.19 421.337,307.857 421.5,305.5 Z"/></g>
<g><path style="opacity:1" fill="#211b05" d="M 414.5,302.5 C 417.894,308.657 420.227,315.324 421.5,322.5C 421.167,323.5 420.833,324.5 420.5,325.5C 419.764,319.793 417.931,314.459 415,309.5C 414.503,307.19 414.337,304.857 414.5,302.5 Z"/></g>
<g><path style="opacity:1" fill="#f6e709" d="M 375.5,296.5 C 376.584,299.004 377.917,301.337 379.5,303.5C 381.938,309.913 382.938,316.58 382.5,323.5C 382.387,330.912 381.887,338.246 381,345.5C 384.333,349.5 387.667,353.5 391,357.5C 398.187,367.391 401.521,378.391 401,390.5C 398.57,391.965 396.07,393.298 393.5,394.5C 395.913,394.754 398.246,394.754 400.5,394.5C 400.023,395.478 399.357,396.311 398.5,397C 396.616,397.216 394.949,397.883 393.5,399C 395.847,399.334 398.181,399.167 400.5,398.5C 400.5,399.5 400.5,400.5 400.5,401.5C 398.516,401.383 396.85,402.05 395.5,403.5C 397.401,404.231 399.401,404.231 401.5,403.5C 401.5,404.5 401.5,405.5 401.5,406.5C 399.173,406.247 397.173,406.914 395.5,408.5C 403.39,408.655 403.39,410.155 395.5,413C 397.458,414.579 399.458,414.412 401.5,412.5C 404.03,414.961 404.863,417.961 404,421.5C 399.265,425.56 393.765,427.56 387.5,427.5C 387.62,424.52 388.287,421.687 389.5,419C 400.496,418.033 400.829,417.2 390.5,416.5C 389.57,406.614 388.237,396.781 386.5,387C 385.71,381.622 388.043,378.789 393.5,378.5C 390.236,377.584 387.236,377.584 384.5,378.5C 386.277,376.107 388.61,374.44 391.5,373.5C 388.702,372.592 386.202,373.259 384,375.5C 382.77,374.725 382.437,373.725 383,372.5C 384.609,371.853 386.109,371.02 387.5,370C 384.965,369.383 382.632,369.883 380.5,371.5C 379.692,371.192 379.025,370.692 378.5,370C 380.221,368.473 382.221,367.473 384.5,367C 382.5,366.333 380.5,366.333 378.5,367C 377.576,368.489 376.576,368.656 375.5,367.5C 376.528,365.639 378.028,364.305 380,363.5C 380.688,362.668 380.521,362.002 379.5,361.5C 376.906,362.592 374.739,364.259 373,366.5C 370.031,365.263 367.197,363.93 364.5,362.5C 367.518,362.665 370.518,362.498 373.5,362C 375.119,361.764 376.119,360.931 376.5,359.5C 375.081,358.549 373.415,358.216 371.5,358.5C 371.5,357.5 371.5,356.5 371.5,355.5C 370.209,355.263 369.209,355.596 368.5,356.5C 367.833,356.5 367.167,356.5 366.5,356.5C 365.508,356.672 364.842,356.338 364.5,355.5C 364.53,354.503 364.03,353.836 363,353.5C 360.213,354.517 357.38,354.684 354.5,354C 356.002,353.417 357.335,352.584 358.5,351.5C 358.376,350.893 358.043,350.56 357.5,350.5C 356.766,349.292 356.433,347.959 356.5,346.5C 355.209,346.263 354.209,346.596 353.5,347.5C 350.204,348.973 347.204,350.64 344.5,352.5C 345.66,354.203 344.993,354.869 342.5,354.5C 333.855,350.905 328.188,344.572 325.5,335.5C 326.038,333.883 326.371,332.216 326.5,330.5C 329.5,330.5 332.5,330.5 335.5,330.5C 335.737,329.209 335.404,328.209 334.5,327.5C 333.833,327.5 333.167,327.5 332.5,327.5C 331.508,327.672 330.842,327.338 330.5,326.5C 331.833,325.833 331.833,325.167 330.5,324.5C 328.901,324.768 327.568,324.434 326.5,323.5C 324.284,321.768 321.618,320.768 318.5,320.5C 317.833,321.5 317.167,322.5 316.5,323.5C 314.181,322.833 311.847,322.666 309.5,323C 312.131,324.327 314.798,325.66 317.5,327C 319.54,329.185 320.874,331.685 321.5,334.5C 314.492,334.666 307.492,334.5 300.5,334C 298.709,331.586 297.043,329.086 295.5,326.5C 294.879,328.998 295.545,331.332 297.5,333.5C 297.167,333.833 296.833,334.167 296.5,334.5C 294.147,332.14 292.147,329.473 290.5,326.5C 290.136,329.201 291.136,331.701 293.5,334C 291.633,334.711 290.133,334.211 289,332.5C 287.478,330.259 286.145,327.926 285,325.5C 284.802,328.578 285.635,331.412 287.5,334C 287,334.167 286.5,334.333 286,334.5C 283.562,331.898 281.395,329.231 279.5,326.5C 277.621,325.105 276.621,323.105 276.5,320.5C 276.833,319.167 277.167,317.833 277.5,316.5C 276.745,314.534 275.579,314.2 274,315.5C 273.39,318.827 272.89,322.161 272.5,325.5C 271.448,325.649 270.448,325.483 269.5,325C 271.466,323.653 271.799,322.153 270.5,320.5C 270.799,318.396 270.466,316.396 269.5,314.5C 268.893,314.624 268.56,314.957 268.5,315.5C 266.836,316.949 266.002,318.949 266,321.5C 264.756,318.362 264.089,315.028 264,311.5C 262.667,310.833 261.667,309.833 261,308.5C 259.691,310.891 258.691,310.891 258,308.5C 256.968,310.027 255.801,311.36 254.5,312.5C 252.823,315.615 253.156,318.282 255.5,320.5C 256.468,318.393 256.802,316.059 256.5,313.5C 257.5,313.5 258.5,313.5 259.5,313.5C 259.336,316.187 259.503,318.854 260,321.5C 260.383,322.056 260.883,322.389 261.5,322.5C 260.496,323.683 259.662,325.016 259,326.5C 258.586,326.043 258.086,325.709 257.5,325.5C 254.891,326.23 252.224,326.73 249.5,327C 250.227,329.124 250.894,331.291 251.5,333.5C 249.167,334.833 246.833,334.833 244.5,333.5C 245.902,332.158 245.569,331.324 243.5,331C 245.063,330.241 246.063,329.074 246.5,327.5C 246.083,326.876 245.416,326.543 244.5,326.5C 239.298,328.352 233.964,328.852 228.5,328C 221.926,323.881 214.926,320.547 207.5,318C 206.867,314.541 206.2,311.041 205.5,307.5C 204.516,310.428 204.183,313.428 204.5,316.5C 203.5,316.5 202.5,316.5 201.5,316.5C 200.82,312.913 200.487,309.58 200.5,306.5C 199.833,309.5 199.167,312.5 198.5,315.5C 197.522,315.023 196.689,314.357 196,313.5C 194.84,301.518 194.007,301.518 193.5,313.5C 192.178,313.67 191.011,313.337 190,312.5C 189.057,302.835 188.224,302.501 187.5,311.5C 186.167,311.5 184.833,311.5 183.5,311.5C 183.5,308.5 183.5,305.5 183.5,302.5C 187.913,300.862 192.579,299.862 197.5,299.5C 202.994,299.147 208.494,298.814 214,298.5C 220.033,298.527 225.866,299.36 231.5,301C 225.07,297.205 218.07,295.539 210.5,296C 209.733,294.53 209.067,293.03 208.5,291.5C 210.141,282.194 212.974,273.194 217,264.5C 218.108,260.914 218.608,257.247 218.5,253.5C 220.504,252.327 222.004,250.66 223,248.5C 223.854,241.476 224.854,234.476 226,227.5C 227.608,224.228 229.608,221.228 232,218.5C 232.192,220.577 232.692,222.577 233.5,224.5C 234.524,225.853 235.857,226.52 237.5,226.5C 238.278,230.285 240.278,233.285 243.5,235.5C 242.637,236.94 242.637,238.274 243.5,239.5C 242.349,240.731 241.183,240.731 240,239.5C 238.913,241.932 238.413,241.598 238.5,238.5C 239.826,236.435 239.159,235.102 236.5,234.5C 235.914,234.709 235.414,235.043 235,235.5C 233.89,230.521 232.89,230.854 232,236.5C 230.307,241.897 231.807,245.897 236.5,248.5C 237.167,249.167 237.833,249.833 238.5,250.5C 239.057,253.05 240.39,255.05 242.5,256.5C 244.308,257.918 244.975,259.918 244.5,262.5C 245.926,263.341 247.26,264.341 248.5,265.5C 249.566,266.692 250.399,266.359 251,264.5C 251.232,265.737 251.732,266.737 252.5,267.5C 252.833,267.5 253.167,267.5 253.5,267.5C 254.167,267.5 254.833,267.5 255.5,267.5C 256.167,267.5 256.833,267.5 257.5,267.5C 257.205,269.735 257.539,271.735 258.5,273.5C 260.167,274.5 261.5,275.833 262.5,277.5C 262.833,277.5 263.167,277.5 263.5,277.5C 264.167,277.5 264.833,277.5 265.5,277.5C 265.833,277.5 266.167,277.5 266.5,277.5C 267.708,276.766 269.041,276.433 270.5,276.5C 270.842,277.338 271.508,277.672 272.5,277.5C 272.557,279.884 272.223,282.218 271.5,284.5C 271.833,285.167 272.167,285.833 272.5,286.5C 273.167,285.167 273.833,283.833 274.5,282.5C 275.167,284.833 275.833,287.167 276.5,289.5C 276.833,288.333 277.167,287.167 277.5,286C 277.428,281.675 276.428,277.842 274.5,274.5C 275.08,270.351 274.414,266.684 272.5,263.5C 271.508,263.328 270.842,263.662 270.5,264.5C 269.833,264.833 269.167,265.167 268.5,265.5C 268.167,265.5 267.833,265.5 267.5,265.5C 267.5,264.167 267.5,262.833 267.5,261.5C 267.012,254.309 267.845,247.309 270,240.5C 270.247,221.817 270.747,203.15 271.5,184.5C 277.367,168.941 285.7,154.775 296.5,142C 297.996,141.493 299.163,141.993 300,143.5C 302.31,148.266 302.977,153.266 302,158.5C 298.167,163 294.333,167.5 290.5,172C 296.191,168.976 300.691,164.476 304,158.5C 306.45,161.378 307.116,164.712 306,168.5C 302.107,172.194 297.94,175.527 293.5,178.5C 294.79,179.408 296.123,179.241 297.5,178C 301.258,176.077 304.591,173.577 307.5,170.5C 309.244,175.655 308.41,180.322 305,184.5C 300.994,187.676 297.16,191.009 293.5,194.5C 293.833,194.833 294.167,195.167 294.5,195.5C 299.497,191.999 303.997,187.999 308,183.5C 309.919,187.797 309.253,191.797 306,195.5C 302.254,198.29 298.421,200.957 294.5,203.5C 294.833,203.833 295.167,204.167 295.5,204.5C 299.434,202.561 303.101,200.228 306.5,197.5C 307.599,200.359 307.099,203.026 305,205.5C 300.574,207.962 296.407,210.796 292.5,214C 297.749,212.872 302.415,210.372 306.5,206.5C 307.772,210.91 306.772,214.743 303.5,218C 300.092,218.98 296.758,220.147 293.5,221.5C 297.275,222.149 300.942,221.482 304.5,219.5C 305.769,221.695 305.769,223.861 304.5,226C 300.484,227.502 296.484,229.002 292.5,230.5C 296.436,231.037 300.269,230.371 304,228.5C 304.635,230.635 304.301,232.635 303,234.5C 298.915,235.991 294.748,237.324 290.5,238.5C 294.489,239.126 298.489,238.793 302.5,237.5C 303.466,239.396 303.799,241.396 303.5,243.5C 299.168,244.388 295.168,246.055 291.5,248.5C 292,248.833 292.5,249.167 293,249.5C 296.806,247.843 300.64,246.51 304.5,245.5C 304.708,247.92 304.374,250.253 303.5,252.5C 298.421,254.538 293.421,256.871 288.5,259.5C 287.167,260.167 287.167,260.833 288.5,261.5C 292.838,259.08 297.338,257.08 302,255.5C 302.022,259.293 300.522,262.459 297.5,265C 304.254,266.021 310.921,267.688 317.5,270C 323.655,274.911 329.989,279.577 336.5,284C 348.129,283.657 359.129,285.99 369.5,291C 371.37,293.04 373.37,294.873 375.5,296.5 Z"/></g>
<g><path style="opacity:1" fill="#211a03" d="M 390.5,386.5 C 393.151,387.49 395.817,388.49 398.5,389.5C 394.972,390.734 392.305,389.734 390.5,386.5 Z"/></g>
<g><path style="opacity:1" fill="#2c2407" d="M 390.5,381.5 C 399.719,381.886 399.719,382.886 390.5,384.5C 389.438,383.575 389.438,382.575 390.5,381.5 Z"/></g>
<g><path style="opacity:1" fill="#1c1702" d="M 353.5,347.5 C 354.239,347.369 354.906,347.536 355.5,348C 352.305,350.554 348.638,352.054 344.5,352.5C 347.204,350.64 350.204,348.973 353.5,347.5 Z"/></g>
<g><path style="opacity:1" fill="#221905" d="M 335.5,341.5 C 338.572,341.183 341.572,341.516 344.5,342.5C 343.271,343.281 341.938,343.781 340.5,344C 342.833,344.333 345.167,344.667 347.5,345C 342.258,347.714 338.258,346.547 335.5,341.5 Z"/></g>
<g><path style="opacity:1" fill="#292503" d="M 332.5,338.5 C 335.355,337.197 338.355,337.197 341.5,338.5C 338.463,339.741 335.463,339.741 332.5,338.5 Z"/></g>
<g><path style="opacity:1" fill="#201b09" d="M 374.5,317.5 C 373.133,320.012 373.466,322.345 375.5,324.5C 375.539,325.583 375.873,326.583 376.5,327.5C 375.732,331.445 375.232,335.445 375,339.5C 373.89,341.037 372.39,341.703 370.5,341.5C 370.216,338.223 370.549,335.057 371.5,332C 371.164,329.699 369.831,327.532 367.5,325.5C 367.977,324.522 368.643,323.689 369.5,323C 367.709,322.585 366.376,321.585 365.5,320C 368.645,318.022 371.312,315.522 373.5,312.5C 373.579,314.128 373.912,315.795 374.5,317.5 Z"/></g>
<g><path style="opacity:1" fill="#262308" d="M 329.5,333.5 C 332.572,333.183 335.572,333.516 338.5,334.5C 337,334.833 335.5,335.167 334,335.5C 332.014,335.431 330.514,334.765 329.5,333.5 Z"/></g>
<g><path style="opacity:1" fill="#151000" d="M 332.5,327.5 C 333.167,327.5 333.833,327.5 334.5,327.5C 333.666,328.748 332.333,329.415 330.5,329.5C 328.611,329.564 326.944,329.064 325.5,328C 328.028,328.105 330.362,327.938 332.5,327.5 Z"/></g>
<g><path style="opacity:1" fill="#120c00" d="M 330.5,324.5 C 331.833,325.167 331.833,325.833 330.5,326.5C 327.428,326.817 324.428,326.484 321.5,325.5C 324.572,325.521 327.572,325.187 330.5,324.5 Z"/></g>
<g><path style="opacity:1" fill="#221b04" d="M 318.5,320.5 C 321.618,320.768 324.284,321.768 326.5,323.5C 324.143,323.663 321.81,323.497 319.5,323C 318.748,322.329 318.414,321.496 318.5,320.5 Z"/></g>
<g><path style="opacity:1" fill="#99921f" d="M 374.5,317.5 C 374.674,319.861 375.007,322.194 375.5,324.5C 373.466,322.345 373.133,320.012 374.5,317.5 Z"/></g>
<g><path style="opacity:1" fill="#1a1100" d="M 277.5,316.5 C 277.167,317.833 276.833,319.167 276.5,320.5C 275.71,321.609 275.21,322.942 275,324.5C 274.333,322.5 274.333,320.5 275,318.5C 275.417,317.244 276.25,316.577 277.5,316.5 Z"/></g>
<g><path style="opacity:1" fill="#2f2806" d="M 240.5,314.5 C 241.458,314.953 242.292,315.619 243,316.5C 243.667,319.167 243.667,321.833 243,324.5C 241.638,321.353 240.805,318.02 240.5,314.5 Z"/></g>
<g><path style="opacity:1" fill="#2c2503" d="M 223.5,309.5 C 224.117,309.611 224.617,309.944 225,310.5C 225.821,313.554 225.655,316.554 224.5,319.5C 223.513,316.232 223.18,312.898 223.5,309.5 Z"/></g>
<g><path style="opacity:1" fill="#3f380a" d="M 217.5,309.5 C 218.641,312.64 218.808,315.973 218,319.5C 216.182,316.278 216.016,312.945 217.5,309.5 Z"/></g>
<g><path style="opacity:1" fill="#2e2203" d="M 270.5,320.5 C 270.631,321.376 270.298,322.043 269.5,322.5C 268.526,320.257 268.192,317.924 268.5,315.5C 268.56,314.957 268.893,314.624 269.5,314.5C 270.466,316.396 270.799,318.396 270.5,320.5 Z"/></g>
<g><path style="opacity:1" fill="#282406" d="M 261.5,322.5 C 260.063,319.022 260.23,315.689 262,312.5C 262.315,315.372 262.815,318.205 263.5,321C 263.164,322.03 262.497,322.53 261.5,322.5 Z"/></g>
<g><path style="opacity:1" fill="#150f00" d="M 234.5,313.5 C 235.75,313.577 236.583,314.244 237,315.5C 237.667,318.167 237.667,320.833 237,323.5C 236.697,320.001 235.864,316.668 234.5,313.5 Z"/></g>
<g><path style="opacity:1" fill="#1e1703" d="M 254.5,312.5 C 255.473,314.948 255.806,317.615 255.5,320.5C 253.156,318.282 252.823,315.615 254.5,312.5 Z"/></g>
<g><path style="opacity:1" fill="#201803" d="M 229.5,312.5 C 231.714,313.392 232.714,315.058 232.5,317.5C 232.658,319.319 231.991,320.652 230.5,321.5C 230.639,318.733 230.306,315.733 229.5,312.5 Z"/></g>
<g><path style="opacity:1" fill="#554b0b" d="M 357.5,310.5 C 359.269,311.421 360.935,312.588 362.5,314C 360.924,314.44 359.59,315.273 358.5,316.5C 357.52,315.019 356.353,313.685 355,312.5C 354.163,314.007 352.996,314.507 351.5,314C 353.257,312.25 355.257,311.084 357.5,310.5 Z"/></g>
<g><path style="opacity:1" fill="#433b0b" d="M 348.5,309.5 C 350.199,309.34 351.866,309.506 353.5,310C 352.5,310.333 351.5,310.667 350.5,311C 350.07,311.92 349.736,312.753 349.5,313.5C 346.145,312.558 345.812,311.225 348.5,309.5 Z"/></g>
<g><path style="opacity:1" fill="#453e06" d="M 342.5,308.5 C 344.185,309.184 345.185,310.517 345.5,312.5C 345.167,312.833 344.833,313.167 344.5,313.5C 343.05,312.15 342.383,310.484 342.5,308.5 Z"/></g>
<g><path style="opacity:1" fill="#231f05" d="M 210.5,307.5 C 211.376,307.369 212.043,307.702 212.5,308.5C 211.602,311.482 211.435,314.482 212,317.5C 209.613,314.406 209.113,311.073 210.5,307.5 Z"/></g>
<g><path style="opacity:1" fill="#291b01" d="M 359.5,306.5 C 361.01,307.836 362.677,309.003 364.5,310C 361.632,310.64 359.965,309.473 359.5,306.5 Z"/></g>
<g><path style="opacity:1" fill="#211704" d="M 339.5,307.5 C 340.621,309.316 341.121,311.316 341,313.5C 339.681,311.75 339.181,309.75 339.5,307.5 Z"/></g>
<g><path style="opacity:1" fill="#3a2a04" d="M 336.5,304.5 C 337.568,306.672 338.068,309.005 338,311.5C 336.096,309.329 335.596,306.996 336.5,304.5 Z"/></g>
<g><path style="opacity:1" fill="#483c09" d="M 360.5,303.5 C 362.014,304.68 363.681,305.68 365.5,306.5C 362.904,307.361 361.237,306.361 360.5,303.5 Z"/></g>
<g><path style="opacity:1" fill="#2e2402" d="M 333.5,302.5 C 334.376,302.369 335.043,302.702 335.5,303.5C 334.846,305.115 334.346,306.782 334,308.5C 333.505,306.527 333.338,304.527 333.5,302.5 Z"/></g>
<g><path style="opacity:1" fill="#423607" d="M 359.5,297.5 C 361.671,299.5 364.004,301.334 366.5,303C 362.34,303.579 360.006,301.745 359.5,297.5 Z"/></g>
<g><path style="opacity:1" fill="#382e04" d="M 353.5,293.5 C 356.114,294.264 357.281,295.93 357,298.5C 355.198,297.211 354.031,295.544 353.5,293.5 Z"/></g>
<g><path style="opacity:1" fill="#3c3007" d="M 342.5,295.5 C 345.252,294.72 347.252,295.887 348.5,299C 347.833,299.667 347.167,299.667 346.5,299C 345.295,297.624 343.962,296.458 342.5,295.5 Z"/></g>
<g><path style="opacity:1" fill="#433006" d="M 332.5,295.5 C 335.252,294.72 337.252,295.887 338.5,299C 337.833,299.667 337.167,299.667 336.5,299C 335.616,297.28 334.283,296.114 332.5,295.5 Z"/></g>
<g><path style="opacity:1" fill="#282001" d="M 336.5,293.5 C 336.897,292.475 337.563,292.308 338.5,293C 341.274,295.064 343.107,297.564 344,300.5C 341.63,297.961 339.13,295.628 336.5,293.5 Z"/></g>
<g><path style="opacity:1" fill="#292001" d="M 346.5,291.5 C 349.395,293.202 351.228,295.536 352,298.5C 349.546,296.559 347.713,294.225 346.5,291.5 Z"/></g>
<g><path style="opacity:1" fill="#231c03" d="M 223.5,288.5 C 224.251,287.427 225.251,287.26 226.5,288C 228.321,289.743 230.321,291.243 232.5,292.5C 232.167,292.833 231.833,293.167 231.5,293.5C 228.469,292.323 225.802,290.656 223.5,288.5 Z"/></g>
<g><path style="opacity:1" fill="#a5990a" d="M 222.5,278.5 C 222.827,283.544 222.494,288.544 221.5,293.5C 220.893,293.376 220.56,293.043 220.5,292.5C 221.167,287.833 221.833,283.167 222.5,278.5 Z"/></g>
<g><path style="opacity:1" fill="#211c03" d="M 224.5,280.5 C 227.444,282.311 230.444,284.144 233.5,286C 231.711,286.52 230.044,286.187 228.5,285C 226.365,284.124 225.031,282.624 224.5,280.5 Z"/></g>
<g><path style="opacity:1" fill="#1d1505" d="M 274.5,274.5 C 276.428,277.842 277.428,281.675 277.5,286C 277.167,287.167 276.833,288.333 276.5,289.5C 275.833,287.167 275.167,284.833 274.5,282.5C 273.833,283.833 273.167,285.167 272.5,286.5C 272.167,285.833 271.833,285.167 271.5,284.5C 272.223,282.218 272.557,279.884 272.5,277.5C 273.551,276.778 274.218,275.778 274.5,274.5 Z"/></g>
<g><path style="opacity:1" fill="#271f04" d="M 225.5,275.5 C 228.839,277.567 232.506,278.9 236.5,279.5C 231.451,281.606 227.784,280.273 225.5,275.5 Z"/></g>
<g><path style="opacity:1" fill="#221c05" d="M 222.5,278.5 C 221.833,283.167 221.167,287.833 220.5,292.5C 219.353,288.354 219.186,284.02 220,279.5C 222.403,272.319 224.237,264.986 225.5,257.5C 229.318,260.907 233.318,264.074 237.5,267C 233.503,266.416 230.003,264.583 227,261.5C 225.188,267.1 223.688,272.767 222.5,278.5 Z"/></g>
<g><path style="opacity:1" fill="#807f26" d="M 270.5,264.5 C 270.5,268.5 270.5,272.5 270.5,276.5C 269.041,276.433 267.708,276.766 266.5,277.5C 266.5,273.833 266.5,270.167 266.5,266.5C 266.5,265.833 266.833,265.5 267.5,265.5C 267.18,268.898 267.513,272.232 268.5,275.5C 269.751,272.126 269.751,268.793 268.5,265.5C 269.167,265.167 269.833,264.833 270.5,264.5 Z"/></g>
<g><path style="opacity:1" fill="#554f0e" d="M 272.5,263.5 C 271.92,267.649 272.586,271.316 274.5,274.5C 274.218,275.778 273.551,276.778 272.5,277.5C 271.508,277.672 270.842,277.338 270.5,276.5C 270.5,272.5 270.5,268.5 270.5,264.5C 270.842,263.662 271.508,263.328 272.5,263.5 Z"/></g>
<g><path style="opacity:1" fill="#141100" d="M 272.5,263.5 C 274.414,266.684 275.08,270.351 274.5,274.5C 272.586,271.316 271.92,267.649 272.5,263.5 Z"/></g>
<g><path style="opacity:1" fill="#1b1401" d="M 227.5,268.5 C 230.444,270.311 233.444,272.144 236.5,274C 234.711,274.52 233.044,274.187 231.5,273C 229.365,272.124 228.031,270.624 227.5,268.5 Z"/></g>
<g><path style="opacity:1" fill="#2d2203" d="M 275.5,266.5 C 276.586,266.62 277.253,267.287 277.5,268.5C 277.167,269.167 276.833,269.833 276.5,270.5C 275.571,269.311 275.238,267.978 275.5,266.5 Z"/></g>
<g><path style="opacity:1" fill="#0b0300" d="M 267.5,265.5 C 267.833,265.5 268.167,265.5 268.5,265.5C 269.751,268.793 269.751,272.126 268.5,275.5C 267.513,272.232 267.18,268.898 267.5,265.5 Z"/></g>
<g><path style="opacity:1" fill="#796f0c" d="M 252.5,267.5 C 251.732,266.737 251.232,265.737 251,264.5C 250.399,266.359 249.566,266.692 248.5,265.5C 249.467,264.194 250.801,263.527 252.5,263.5C 252.5,264.833 252.5,266.167 252.5,267.5 Z"/></g>
<g><path style="opacity:1" fill="#2d2b0f" d="M 267.5,261.5 C 267.5,262.833 267.5,264.167 267.5,265.5C 266.833,265.5 266.5,265.833 266.5,266.5C 265.5,266.5 264.5,266.5 263.5,266.5C 263.987,261.821 264.653,257.154 265.5,252.5C 266.167,255.642 266.834,258.642 267.5,261.5 Z"/></g>
<g><path style="opacity:1" fill="#cdc327" d="M 257.5,245.5 C 257.216,247.415 257.549,249.081 258.5,250.5C 257.286,252.808 257.286,255.141 258.5,257.5C 259.429,256.311 259.762,254.978 259.5,253.5C 260.167,253.833 260.833,254.167 261.5,254.5C 260.34,256.203 261.007,256.869 263.5,256.5C 262.614,263.457 262.28,270.457 262.5,277.5C 261.5,275.833 260.167,274.5 258.5,273.5C 257.539,271.735 257.205,269.735 257.5,267.5C 256.833,255.5 256.167,255.5 255.5,267.5C 254.833,267.5 254.167,267.5 253.5,267.5C 254.758,263.8 254.758,260.134 253.5,256.5C 253.833,256.5 254.167,256.5 254.5,256.5C 256.125,253.109 257.125,249.442 257.5,245.5 Z"/></g>
<g><path style="opacity:1" fill="#160d00" d="M 258.5,273.5 C 258.173,268.786 258.507,264.12 259.5,259.5C 260.768,264.388 260.435,269.055 258.5,273.5 Z"/></g>
<g><path style="opacity:1" fill="#151500" d="M 257.5,267.5 C 256.833,267.5 256.167,267.5 255.5,267.5C 256.167,255.5 256.833,255.5 257.5,267.5 Z"/></g>
<g><path style="opacity:1" fill="#1f1e07" d="M 253.5,256.5 C 254.758,260.134 254.758,263.8 253.5,267.5C 253.167,267.5 252.833,267.5 252.5,267.5C 252.5,266.167 252.5,264.833 252.5,263.5C 250.801,263.527 249.467,264.194 248.5,265.5C 248.169,261.241 249.002,257.241 251,253.5C 251.852,254.571 252.685,255.571 253.5,256.5 Z"/></g>
<g><path style="opacity:1" fill="#201903" d="M 284.5,247.5 C 285.693,247.97 286.36,248.97 286.5,250.5C 285.793,254.918 283.793,258.585 280.5,261.5C 280.167,261.167 279.833,260.833 279.5,260.5C 283.124,256.918 284.791,252.585 284.5,247.5 Z"/></g>
<g><path style="opacity:1" fill="#171003" d="M 244.5,262.5 C 244.975,259.918 244.308,257.918 242.5,256.5C 241.737,253.859 241.57,251.192 242,248.5C 243.719,256.312 244.553,256.312 244.5,248.5C 245.077,247.227 245.743,247.227 246.5,248.5C 245.236,252.479 245.236,256.479 246.5,260.5C 246.253,261.713 245.586,262.38 244.5,262.5 Z"/></g>
<g><path style="opacity:1" fill="#2f2003" d="M 258.5,250.5 C 259.404,251.209 259.737,252.209 259.5,253.5C 259.762,254.978 259.429,256.311 258.5,257.5C 257.286,255.141 257.286,252.808 258.5,250.5 Z"/></g>
<g><path style="opacity:1" fill="#332f0a" d="M 244.5,248.5 C 244.553,256.312 243.719,256.312 242,248.5C 241.57,251.192 241.737,253.859 242.5,256.5C 240.39,255.05 239.057,253.05 238.5,250.5C 237.773,246.776 239.106,244.109 242.5,242.5C 243.169,244.631 243.835,246.631 244.5,248.5 Z"/></g>
<g><path style="opacity:1" fill="#e4d719" d="M 250.5,233.5 C 249.252,234.334 248.585,235.667 248.5,237.5C 250.075,242.309 251.908,246.975 254,251.5C 254.494,253.134 254.66,254.801 254.5,256.5C 254.167,256.5 253.833,256.5 253.5,256.5C 252.685,255.571 251.852,254.571 251,253.5C 249.002,257.241 248.169,261.241 248.5,265.5C 247.26,264.341 245.926,263.341 244.5,262.5C 245.586,262.38 246.253,261.713 246.5,260.5C 245.236,256.479 245.236,252.479 246.5,248.5C 245.743,247.227 245.077,247.227 244.5,248.5C 243.835,246.631 243.169,244.631 242.5,242.5C 239.106,244.109 237.773,246.776 238.5,250.5C 237.833,249.833 237.167,249.167 236.5,248.5C 236.159,244.84 236.825,241.507 238.5,238.5C 238.413,241.598 238.913,241.932 240,239.5C 241.183,240.731 242.349,240.731 243.5,239.5C 242.637,238.274 242.637,236.94 243.5,235.5C 243.5,233.167 243.5,230.833 243.5,228.5C 244.167,228.833 244.833,229.167 245.5,229.5C 247.03,227.123 248.53,227.123 250,229.5C 250.49,230.793 250.657,232.127 250.5,233.5 Z"/></g>
<g><path style="opacity:1" fill="#201b05" d="M 250.5,233.5 C 250.201,235.604 250.534,237.604 251.5,239.5C 253.44,241.045 254.606,243.045 255,245.5C 256.071,242.887 256.905,242.887 257.5,245.5C 257.125,249.442 256.125,253.109 254.5,256.5C 254.66,254.801 254.494,253.134 254,251.5C 251.908,246.975 250.075,242.309 248.5,237.5C 248.585,235.667 249.252,234.334 250.5,233.5 Z"/></g>
<g><path style="opacity:1" fill="#201b03" d="M 281.5,236.5 C 282.586,236.62 283.253,237.287 283.5,238.5C 282.676,243.814 280.509,248.48 277,252.5C 278.965,247.421 280.465,242.087 281.5,236.5 Z"/></g>
<g><path style="opacity:1" fill="#090a05" d="M 191.5,175.5 C 190.833,175.5 190.167,175.5 189.5,175.5C 187.131,175.149 184.797,174.982 182.5,175C 184.415,178.676 186.415,182.176 188.5,185.5C 188.833,186.167 189.167,186.833 189.5,187.5C 187.009,192.166 185.342,197.166 184.5,202.5C 184.833,203.5 185.167,204.5 185.5,205.5C 187.982,204.933 190.316,204.266 192.5,203.5C 193.167,203.5 193.5,203.833 193.5,204.5C 191.329,211.502 192.496,217.836 197,223.5C 197.257,229.042 196.757,234.542 195.5,240C 196.448,248.312 201.114,252.146 209.5,251.5C 212.5,252.167 215.5,252.833 218.5,253.5C 218.608,257.247 218.108,260.914 217,264.5C 212.974,273.194 210.141,282.194 208.5,291.5C 207.835,293.369 207.169,295.369 206.5,297.5C 205.67,294.179 205.003,290.846 204.5,287.5C 206.838,279.319 209.671,271.319 213,263.5C 213.498,260.518 213.665,257.518 213.5,254.5C 205.609,256.152 198.776,254.152 193,248.5C 191.455,245.698 190.622,242.698 190.5,239.5C 193.83,231.648 192.996,224.315 188,217.5C 187.667,214.167 187.333,210.833 187,207.5C 184.578,209.625 182.244,209.958 180,208.5C 179.01,201.295 180.176,194.462 183.5,188C 181.651,182.965 179.318,178.132 176.5,173.5C 179.446,172.345 182.446,172.179 185.5,173C 187.974,173.037 189.974,173.87 191.5,175.5 Z"/></g>
<g><path style="opacity:1" fill="#272209" d="M 243.5,228.5 C 243.5,230.833 243.5,233.167 243.5,235.5C 240.278,233.285 238.278,230.285 237.5,226.5C 235.857,226.52 234.524,225.853 233.5,224.5C 232.692,222.577 232.192,220.577 232,218.5C 229.608,221.228 227.608,224.228 226,227.5C 224.854,234.476 223.854,241.476 223,248.5C 222.004,250.66 220.504,252.327 218.5,253.5C 215.5,252.833 212.5,252.167 209.5,251.5C 213.106,251.789 216.606,251.456 220,250.5C 220.973,248.608 221.64,246.608 222,244.5C 222.333,239.5 222.667,234.5 223,229.5C 225.567,223.931 228.567,218.597 232,213.5C 232.176,210.118 232.676,206.785 233.5,203.5C 233.956,209.688 235.122,215.688 237,221.5C 237.308,220.692 237.808,220.025 238.5,219.5C 239.887,222.861 241.553,225.861 243.5,228.5 Z"/></g>
<g><path style="opacity:1" fill="#1b1705" d="M 238.5,179.5 C 239.022,181.219 240.022,182.552 241.5,183.5C 243.546,186.144 246.046,188.477 249,190.5C 249.711,192.367 249.211,193.867 247.5,195C 249.899,195.731 252.065,196.898 254,198.5C 254.507,199.996 254.007,201.163 252.5,202C 254.587,202.792 256.421,203.959 258,205.5C 258.333,207.047 257.833,208.38 256.5,209.5C 258.193,211.027 260.027,212.36 262,213.5C 262.595,214.899 262.428,216.232 261.5,217.5C 264.657,219.46 265.324,222.126 263.5,225.5C 264.447,227.4 265.947,228.733 268,229.5C 268.333,217.167 268.667,204.833 269,192.5C 269.363,189.456 269.863,186.456 270.5,183.5C 271.167,183.5 271.5,183.833 271.5,184.5C 270.747,203.15 270.247,221.817 270,240.5C 267.845,247.309 267.012,254.309 267.5,261.5C 266.834,258.642 266.167,255.642 265.5,252.5C 264.653,257.154 263.987,261.821 263.5,266.5C 264.5,266.5 265.5,266.5 266.5,266.5C 266.5,270.167 266.5,273.833 266.5,277.5C 266.167,277.5 265.833,277.5 265.5,277.5C 265.3,265.697 264.633,265.697 263.5,277.5C 263.167,277.5 262.833,277.5 262.5,277.5C 262.28,270.457 262.614,263.457 263.5,256.5C 261.007,256.869 260.34,256.203 261.5,254.5C 266.141,247.943 268.308,240.61 268,232.5C 266.164,230.292 263.831,228.958 261,228.5C 260.318,226.062 260.818,223.895 262.5,222C 261.968,219.98 260.635,219.147 258.5,219.5C 258.297,217.61 258.963,216.11 260.5,215C 258.326,212.648 255.659,211.481 252.5,211.5C 253.403,209.391 254.237,207.391 255,205.5C 252.959,204.577 250.792,204.244 248.5,204.5C 248.244,202.088 249.244,200.421 251.5,199.5C 249.107,197.637 246.44,196.304 243.5,195.5C 244.605,194.108 245.939,192.941 247.5,192C 243.868,189.37 240.535,186.37 237.5,183C 236.207,182.51 234.873,182.343 233.5,182.5C 233.817,176.091 233.317,169.757 232,163.5C 231.405,159.918 230.071,159.584 228,162.5C 226.065,165.371 224.399,168.371 223,171.5C 222.39,179.519 222.557,187.519 223.5,195.5C 220.245,195.986 217.578,194.986 215.5,192.5C 214.749,193.376 214.249,194.376 214,195.5C 213.501,199.486 213.334,203.486 213.5,207.5C 212.178,207.67 211.011,207.337 210,206.5C 209.147,204.065 208.147,201.731 207,199.5C 205.337,201.158 204.504,203.158 204.5,205.5C 203.178,205.67 202.011,205.337 201,204.5C 200.798,202.744 200.298,201.078 199.5,199.5C 197.285,200.956 195.285,202.622 193.5,204.5C 193.5,203.833 193.167,203.5 192.5,203.5C 194.529,200.473 197.196,198.14 200.5,196.5C 201.167,198.5 201.833,200.5 202.5,202.5C 203.647,199.013 205.981,197.013 209.5,196.5C 210.775,206.931 211.608,206.598 212,195.5C 213.113,189.564 215.28,188.731 218.5,193C 219.448,193.483 220.448,193.649 221.5,193.5C 220.642,185.868 220.309,178.201 220.5,170.5C 217.482,170.335 214.482,170.502 211.5,171C 210.643,171.689 209.977,172.522 209.5,173.5C 205.765,174.153 202.099,174.986 198.5,176C 195.842,180.175 192.842,184.008 189.5,187.5C 189.167,186.833 188.833,186.167 188.5,185.5C 190.317,183.508 191.984,181.341 193.5,179C 192.314,177.588 190.981,176.421 189.5,175.5C 190.167,175.5 190.833,175.5 191.5,175.5C 195.852,173.36 200.518,172.027 205.5,171.5C 206.364,169.803 207.697,168.637 209.5,168C 213.211,167.825 216.878,167.325 220.5,166.5C 222.787,162.878 225.453,159.545 228.5,156.5C 231.648,157.721 233.482,160.054 234,163.5C 235.289,169.088 235.789,174.755 235.5,180.5C 236.791,180.737 237.791,180.404 238.5,179.5 Z"/></g>
<g><path style="opacity:1" fill="#797619" d="M 265.5,277.5 C 264.833,277.5 264.167,277.5 263.5,277.5C 264.633,265.697 265.3,265.697 265.5,277.5 Z"/></g>
<g><path style="opacity:1" fill="#e8dc17" d="M 189.5,175.5 C 190.981,176.421 192.314,177.588 193.5,179C 191.984,181.341 190.317,183.508 188.5,185.5C 186.415,182.176 184.415,178.676 182.5,175C 184.797,174.982 187.131,175.149 189.5,175.5 Z"/></g>
<g><path style="opacity:1" fill="#f4e60b" d="M 192.5,203.5 C 190.316,204.266 187.982,204.933 185.5,205.5C 185.167,204.5 184.833,203.5 184.5,202.5C 185.342,197.166 187.009,192.166 189.5,187.5C 192.842,184.008 195.842,180.175 198.5,176C 202.099,174.986 205.765,174.153 209.5,173.5C 209.977,172.522 210.643,171.689 211.5,171C 214.482,170.502 217.482,170.335 220.5,170.5C 220.309,178.201 220.642,185.868 221.5,193.5C 220.448,193.649 219.448,193.483 218.5,193C 215.28,188.731 213.113,189.564 212,195.5C 211.608,206.598 210.775,206.931 209.5,196.5C 205.981,197.013 203.647,199.013 202.5,202.5C 201.833,200.5 201.167,198.5 200.5,196.5C 197.196,198.14 194.529,200.473 192.5,203.5 Z"/></g>
<g><path style="opacity:1" fill="#f7e808" d="M 261.5,254.5 C 260.833,254.167 260.167,253.833 259.5,253.5C 259.737,252.209 259.404,251.209 258.5,250.5C 257.549,249.081 257.216,247.415 257.5,245.5C 256.905,242.887 256.071,242.887 255,245.5C 254.606,243.045 253.44,241.045 251.5,239.5C 250.534,237.604 250.201,235.604 250.5,233.5C 250.657,232.127 250.49,230.793 250,229.5C 248.53,227.123 247.03,227.123 245.5,229.5C 244.833,229.167 244.167,228.833 243.5,228.5C 241.553,225.861 239.887,222.861 238.5,219.5C 237.808,220.025 237.308,220.692 237,221.5C 235.122,215.688 233.956,209.688 233.5,203.5C 232.676,206.785 232.176,210.118 232,213.5C 228.567,218.597 225.567,223.931 223,229.5C 222.667,234.5 222.333,239.5 222,244.5C 221.64,246.608 220.973,248.608 220,250.5C 216.606,251.456 213.106,251.789 209.5,251.5C 201.114,252.146 196.448,248.312 195.5,240C 196.757,234.542 197.257,229.042 197,223.5C 192.496,217.836 191.329,211.502 193.5,204.5C 195.285,202.622 197.285,200.956 199.5,199.5C 200.298,201.078 200.798,202.744 201,204.5C 202.011,205.337 203.178,205.67 204.5,205.5C 204.504,203.158 205.337,201.158 207,199.5C 208.147,201.731 209.147,204.065 210,206.5C 211.011,207.337 212.178,207.67 213.5,207.5C 213.334,203.486 213.501,199.486 214,195.5C 214.249,194.376 214.749,193.376 215.5,192.5C 217.578,194.986 220.245,195.986 223.5,195.5C 222.557,187.519 222.39,179.519 223,171.5C 224.399,168.371 226.065,165.371 228,162.5C 230.071,159.584 231.405,159.918 232,163.5C 233.317,169.757 233.817,176.091 233.5,182.5C 234.873,182.343 236.207,182.51 237.5,183C 240.535,186.37 243.868,189.37 247.5,192C 245.939,192.941 244.605,194.108 243.5,195.5C 246.44,196.304 249.107,197.637 251.5,199.5C 249.244,200.421 248.244,202.088 248.5,204.5C 250.792,204.244 252.959,204.577 255,205.5C 254.237,207.391 253.403,209.391 252.5,211.5C 255.659,211.481 258.326,212.648 260.5,215C 258.963,216.11 258.297,217.61 258.5,219.5C 260.635,219.147 261.968,219.98 262.5,222C 260.818,223.895 260.318,226.062 261,228.5C 263.831,228.958 266.164,230.292 268,232.5C 268.308,240.61 266.141,247.943 261.5,254.5 Z"/></g>
<g><path style="opacity:1" fill="#191405" d="M 238.5,238.5 C 236.825,241.507 236.159,244.84 236.5,248.5C 231.807,245.897 230.307,241.897 232,236.5C 232.89,230.854 233.89,230.521 235,235.5C 235.414,235.043 235.914,234.709 236.5,234.5C 239.159,235.102 239.826,236.435 238.5,238.5 Z"/></g>
<g><path style="opacity:1" fill="#120d05" d="M 214.5,238.5 C 215.833,238.5 217.167,238.5 218.5,238.5C 218.462,245.2 215.128,247.867 208.5,246.5C 208.421,245.07 208.754,243.736 209.5,242.5C 211.419,241.388 213.086,240.054 214.5,238.5 Z"/></g>
<g><path style="opacity:1" fill="#1a1504" d="M 245.5,229.5 C 246.648,233.981 246.815,238.648 246,243.5C 244.383,238.824 244.217,234.157 245.5,229.5 Z"/></g>
<g><path style="opacity:1" fill="#231804" d="M 208.5,220.5 C 209.777,221.694 210.444,223.36 210.5,225.5C 210.167,227.167 209.833,228.833 209.5,230.5C 208.513,227.232 208.18,223.898 208.5,220.5 Z"/></g>
<g><path style="opacity:1" fill="#110800" d="M 197.5,215.5 C 200.297,215.967 201.631,217.633 201.5,220.5C 200.5,220.5 199.5,220.5 198.5,220.5C 198.371,218.784 198.038,217.117 197.5,215.5 Z"/></g>
<g><path style="opacity:1" fill="#1b1405" d="M 217.5,213.5 C 218.5,213.5 219.5,213.5 220.5,213.5C 220.167,215.5 219.833,217.5 219.5,219.5C 218.167,219.5 216.833,219.5 215.5,219.5C 215.604,217.297 216.27,215.297 217.5,213.5 Z"/></g>
<g><path style="opacity:1" fill="#0b0c05" d="M 265.5,72.5 C 264.833,72.5 264.167,72.5 263.5,72.5C 262.883,72.3893 262.383,72.056 262,71.5C 261.32,82.9108 259.987,94.2442 258,105.5C 252.843,125.129 247.843,144.796 243,164.5C 241.812,170.778 241.312,177.112 241.5,183.5C 240.022,182.552 239.022,181.219 238.5,179.5C 238.384,172.126 238.884,164.792 240,157.5C 248.206,131.679 254.039,105.346 257.5,78.5C 257.415,75.135 257.082,71.8017 256.5,68.5C 256.833,67.8333 257.167,67.1667 257.5,66.5C 260.593,68.0343 263.26,70.0343 265.5,72.5 Z"/></g>
<g><path style="opacity:1" fill="#191604" d="M 472.5,333.5 C 471.5,332.167 470.5,332.167 469.5,333.5C 466.845,324.058 461.178,316.892 452.5,312C 442.053,301.215 433.553,289.049 427,275.5C 418.36,265.818 408.86,264.985 398.5,273C 391,279.833 383.5,286.667 376,293.5C 375.517,294.448 375.351,295.448 375.5,296.5C 373.37,294.873 371.37,293.04 369.5,291C 359.129,285.99 348.129,283.657 336.5,284C 329.989,279.577 323.655,274.911 317.5,270C 310.921,267.688 304.254,266.021 297.5,265C 300.522,262.459 302.022,259.293 302,255.5C 297.338,257.08 292.838,259.08 288.5,261.5C 287.167,260.833 287.167,260.167 288.5,259.5C 293.421,256.871 298.421,254.538 303.5,252.5C 304.374,250.253 304.708,247.92 304.5,245.5C 300.64,246.51 296.806,247.843 293,249.5C 292.5,249.167 292,248.833 291.5,248.5C 295.168,246.055 299.168,244.388 303.5,243.5C 303.799,241.396 303.466,239.396 302.5,237.5C 298.489,238.793 294.489,239.126 290.5,238.5C 294.748,237.324 298.915,235.991 303,234.5C 304.301,232.635 304.635,230.635 304,228.5C 300.269,230.371 296.436,231.037 292.5,230.5C 296.484,229.002 300.484,227.502 304.5,226C 305.769,223.861 305.769,221.695 304.5,219.5C 300.942,221.482 297.275,222.149 293.5,221.5C 296.758,220.147 300.092,218.98 303.5,218C 306.772,214.743 307.772,210.91 306.5,206.5C 302.415,210.372 297.749,212.872 292.5,214C 296.407,210.796 300.574,207.962 305,205.5C 307.099,203.026 307.599,200.359 306.5,197.5C 303.101,200.228 299.434,202.561 295.5,204.5C 295.167,204.167 294.833,203.833 294.5,203.5C 298.421,200.957 302.254,198.29 306,195.5C 309.253,191.797 309.919,187.797 308,183.5C 303.997,187.999 299.497,191.999 294.5,195.5C 294.167,195.167 293.833,194.833 293.5,194.5C 297.16,191.009 300.994,187.676 305,184.5C 308.41,180.322 309.244,175.655 307.5,170.5C 304.591,173.577 301.258,176.077 297.5,178C 296.123,179.241 294.79,179.408 293.5,178.5C 297.94,175.527 302.107,172.194 306,168.5C 307.116,164.712 306.45,161.378 304,158.5C 300.691,164.476 296.191,168.976 290.5,172C 294.333,167.5 298.167,163 302,158.5C 302.977,153.266 302.31,148.266 300,143.5C 299.163,141.993 297.996,141.493 296.5,142C 285.7,154.775 277.367,168.941 271.5,184.5C 271.5,183.833 271.167,183.5 270.5,183.5C 271.16,179.687 272.326,176.021 274,172.5C 280.945,160.406 288.445,148.74 296.5,137.5C 295.741,133.641 293.741,130.641 290.5,128.5C 288.063,137.989 284.563,146.989 280,155.5C 279.333,154.167 279.333,152.833 280,151.5C 284.873,141.671 288.04,131.337 289.5,120.5C 289.53,116.584 288.197,113.25 285.5,110.5C 282.798,123.225 278.964,135.558 274,147.5C 277.72,134.42 280.887,121.087 283.5,107.5C 284.099,102.253 281.932,98.5862 277,96.5C 273.882,110.643 269.382,124.31 263.5,137.5C 263.167,137 262.833,136.5 262.5,136C 265.47,127.423 268.637,118.923 272,110.5C 277.192,95.9307 274.359,83.264 263.5,72.5C 264.167,72.5 264.833,72.5 265.5,72.5C 271.622,78.0775 275.122,85.0775 276,93.5C 282.27,96.0314 285.603,100.698 286,107.5C 290.566,112.598 292.066,118.432 290.5,125C 293.378,127.709 296.044,130.542 298.5,133.5C 319.195,112.289 334.362,87.6226 344,59.5C 350.387,66.2533 351.887,73.9199 348.5,82.5C 352.983,87.9133 354.816,94.2466 354,101.5C 355.61,104.597 356.61,107.931 357,111.5C 357.997,122.424 357.497,133.257 355.5,144C 357.007,148.199 358.007,152.532 358.5,157C 357.028,169.366 354.862,181.533 352,193.5C 350.692,195.641 349.192,197.641 347.5,199.5C 347.931,200.293 348.265,201.127 348.5,202C 346.859,207.452 345.359,212.952 344,218.5C 343,219.5 342,220.5 341,221.5C 339.913,225.766 338.246,229.766 336,233.5C 332.201,238.202 328.034,242.702 323.5,247C 317.822,250.446 311.822,253.113 305.5,255C 304.839,258.137 303.505,260.97 301.5,263.5C 307.923,264.103 313.923,265.937 319.5,269C 325.167,273.333 330.833,277.667 336.5,282C 350.067,281.295 362.567,284.461 374,291.5C 382.828,284.006 391.662,276.506 400.5,269C 411.502,263.083 421.002,264.916 429,274.5C 434.252,282.668 439.252,291.001 444,299.5C 449.706,306.874 456.373,313.207 464,318.5C 467.922,322.913 470.756,327.913 472.5,333.5 Z"/></g>
<g><path style="opacity:1" fill="#281f04" d="M 400.5,280.5 C 404.869,279.923 408.869,280.757 412.5,283C 422.678,282.241 426.678,286.741 424.5,296.5C 423.686,294.234 423.186,291.9 423,289.5C 420.661,285.137 417.494,284.47 413.5,287.5C 408.651,280.333 402.985,279.666 396.5,285.5C 396.167,285.167 395.833,284.833 395.5,284.5C 397.21,283.113 398.877,281.779 400.5,280.5 Z"/></g>
<g><path style="opacity:1" fill="#f5e60a" d="M 344.5,65.5 C 345.966,66.347 346.8,67.6803 347,69.5C 347.667,73.5 347.667,77.5 347,81.5C 338.573,101.691 328.073,120.691 315.5,138.5C 316.167,139.833 316.833,139.833 317.5,138.5C 328.952,122.606 338.618,105.606 346.5,87.5C 348.718,86.8123 350.218,87.8123 351,90.5C 351.667,94.1667 351.667,97.8333 351,101.5C 348.924,106.651 346.59,111.651 344,116.5C 336.152,127.677 328.319,138.844 320.5,150C 332.896,137.652 343.229,122.818 351.5,105.5C 351.833,105.167 352.167,104.833 352.5,104.5C 353.584,105.665 354.417,106.998 355,108.5C 355.667,113.833 355.667,119.167 355,124.5C 345.939,138.598 335.439,151.598 323.5,163.5C 324.002,164.521 324.668,164.688 325.5,164C 336.168,152.813 346.001,140.979 355,128.5C 356.068,133.768 355.401,138.768 353,143.5C 343.735,154.355 334.235,165.022 324.5,175.5C 325.002,176.521 325.668,176.688 326.5,176C 335.333,166.5 344.167,157 353,147.5C 355.222,150.024 356.389,153.024 356.5,156.5C 356,159.5 355.5,162.5 355,165.5C 345.252,173.953 334.752,181.287 323.5,187.5C 323.833,187.833 324.167,188.167 324.5,188.5C 334.691,183.575 344.024,177.409 352.5,170C 353.6,169.568 354.267,170.068 354.5,171.5C 353.789,177.72 350.789,182.553 345.5,186C 338.5,190.833 331.5,195.667 324.5,200.5C 324.833,200.833 325.167,201.167 325.5,201.5C 334.438,196.115 342.938,190.115 351,183.5C 351.667,185.833 351.667,188.167 351,190.5C 348.925,194.579 346.092,198.079 342.5,201C 335.748,205.043 328.748,208.543 321.5,211.5C 321.833,211.833 322.167,212.167 322.5,212.5C 331.022,210.003 338.689,206.003 345.5,200.5C 346.83,204.016 346.163,207.183 343.5,210C 336.052,214.313 328.386,218.146 320.5,221.5C 328.364,220.032 335.864,217.032 343,212.5C 342.985,216.559 341.152,219.726 337.5,222C 331.226,224.643 324.893,226.977 318.5,229C 320.167,229.667 321.833,229.667 323.5,229C 328.165,227.389 332.832,225.889 337.5,224.5C 336.613,228.901 334.279,232.401 330.5,235C 324.987,236.792 319.32,237.958 313.5,238.5C 318.47,239.852 323.303,239.519 328,237.5C 327.107,240.436 325.274,242.936 322.5,245C 317.475,248.015 312.142,250.182 306.5,251.5C 306.202,246.285 305.536,241.118 304.5,236C 306.456,227.086 308.122,218.086 309.5,209C 308.807,201.429 309.473,193.929 311.5,186.5C 311.303,184.318 310.636,182.318 309.5,180.5C 309.996,178.529 310.33,176.529 310.5,174.5C 309.053,170.027 308.22,165.36 308,160.5C 307.385,158.884 306.385,157.551 305,156.5C 305.084,149.985 303.251,144.151 299.5,139C 310.604,125.296 321.104,111.13 331,96.5C 336.762,86.7138 341.262,76.3804 344.5,65.5 Z"/></g>
<g><path style="opacity:1" fill="#f6e707" d="M 263.5,72.5 C 274.359,83.264 277.192,95.9307 272,110.5C 268.637,118.923 265.47,127.423 262.5,136C 262.833,136.5 263.167,137 263.5,137.5C 269.382,124.31 273.882,110.643 277,96.5C 281.932,98.5862 284.099,102.253 283.5,107.5C 280.887,121.087 277.72,134.42 274,147.5C 278.964,135.558 282.798,123.225 285.5,110.5C 288.197,113.25 289.53,116.584 289.5,120.5C 288.04,131.337 284.873,141.671 280,151.5C 279.333,152.833 279.333,154.167 280,155.5C 284.563,146.989 288.063,137.989 290.5,128.5C 293.741,130.641 295.741,133.641 296.5,137.5C 288.445,148.74 280.945,160.406 274,172.5C 272.326,176.021 271.16,179.687 270.5,183.5C 269.863,186.456 269.363,189.456 269,192.5C 268.667,204.833 268.333,217.167 268,229.5C 265.947,228.733 264.447,227.4 263.5,225.5C 265.324,222.126 264.657,219.46 261.5,217.5C 262.428,216.232 262.595,214.899 262,213.5C 260.027,212.36 258.193,211.027 256.5,209.5C 257.833,208.38 258.333,207.047 258,205.5C 256.421,203.959 254.587,202.792 252.5,202C 254.007,201.163 254.507,199.996 254,198.5C 252.065,196.898 249.899,195.731 247.5,195C 249.211,193.867 249.711,192.367 249,190.5C 246.046,188.477 243.546,186.144 241.5,183.5C 241.312,177.112 241.812,170.778 243,164.5C 247.843,144.796 252.843,125.129 258,105.5C 259.987,94.2442 261.32,82.9108 262,71.5C 262.383,72.056 262.883,72.3893 263.5,72.5 Z"/></g>
<g><path style="opacity:1" fill="#ada21f" d="M 350.5,41.5 C 345.402,42.9573 340.069,43.624 334.5,43.5C 339.616,42.1937 344.949,41.527 350.5,41.5 Z"/></g>
</svg>
